<svg width="142" height="101" viewBox="0 0 100 100" fill="none" xmlns="http://www.w3.org/2000/svg">
<mask id="mask0_3789_8550" style="mask-type:alpha" maskUnits="userSpaceOnUse" x="37" y="9" width="59" height="50">
<path d="M60.0589 46.3802C52.0166 49.9153 42.5836 46.3679 38.9898 38.457C35.396 30.546 39.0023 21.2671 47.0445 17.732C55.0868 14.1969 64.5198 17.7443 68.1136 25.6552C71.7074 33.5662 68.1011 42.845 60.0589 46.3802Z" fill="black"/>
<path d="M89.0296 30.2442C83.4619 32.6916 76.9314 30.2358 74.4434 24.7589C71.9553 19.2821 74.452 12.8583 80.0197 10.4109C85.5874 7.96353 92.118 10.4194 94.606 15.8962C97.094 21.373 94.5973 27.7969 89.0296 30.2442Z" fill="black"/>
<path d="M85.1256 57.2603C80.6404 59.2318 75.3798 57.2535 73.3755 52.8416C71.3712 48.4297 73.3824 43.255 77.8675 41.2835C82.3526 39.312 87.6133 41.2903 89.6176 45.7022C91.6218 50.114 89.6107 55.2888 85.1256 57.2603Z" fill="black"/>
</mask>
<g mask="url(#mask0_3789_8550)">
<path d="M30.8905 52.7757C40.497 73.9223 65.712 83.4046 87.2097 73.955C108.707 64.5053 118.347 39.7022 108.741 18.5556C99.134 -2.59095 73.9191 -12.0732 52.4214 -2.62359C30.9237 6.82604 21.284 31.6292 30.8905 52.7757Z" fill="white"/>
<path d="M53.3885 41.9742C57.6043 51.2543 68.6699 55.4156 78.1041 51.2687C87.5383 47.1217 91.7687 36.2369 87.5529 26.9567C83.3371 17.6766 72.2715 13.5153 62.8373 17.6623C53.4031 21.8092 49.1727 32.6941 53.3885 41.9742Z" fill="white"/>
</g>
</svg>
