<svg width="1437" height="6314" viewBox="0 0 1437 6314" fill="none" xmlns="http://www.w3.org/2000/svg">
<g opacity="0.4">
<line x1="0.5" y1="6461.59" x2="0.5" y2="-141.999" stroke="#4ECDC4"/>
<line x1="14.1855" y1="6461.59" x2="14.1855" y2="-141.999" stroke="#4ECDC4"/>
<line x1="27.8716" y1="6461.59" x2="27.8716" y2="-141.999" stroke="#4ECDC4"/>
<line x1="41.5571" y1="6461.59" x2="41.5571" y2="-141.999" stroke="#4ECDC4"/>
<line x1="55.2427" y1="6461.59" x2="55.2427" y2="-141.999" stroke="#4ECDC4"/>
<line x1="68.9287" y1="6461.59" x2="68.9287" y2="-141.999" stroke="#4ECDC4"/>
<line x1="82.6143" y1="6461.59" x2="82.6143" y2="-141.999" stroke="#4ECDC4"/>
<line x1="96.2998" y1="6461.59" x2="96.2998" y2="-141.999" stroke="#4ECDC4"/>
<line x1="109.986" y1="6461.59" x2="109.986" y2="-141.999" stroke="#4ECDC4"/>
<line x1="123.671" y1="6461.59" x2="123.671" y2="-141.999" stroke="#4ECDC4"/>
<line x1="137.357" y1="6461.59" x2="137.357" y2="-141.999" stroke="#4ECDC4"/>
<line x1="151.043" y1="6461.59" x2="151.043" y2="-141.999" stroke="#4ECDC4"/>
<line x1="164.729" y1="6461.59" x2="164.729" y2="-141.999" stroke="#4ECDC4"/>
<line x1="178.414" y1="6461.59" x2="178.414" y2="-141.999" stroke="#4ECDC4"/>
<line x1="192.1" y1="6461.59" x2="192.1" y2="-141.999" stroke="#4ECDC4"/>
<line x1="205.786" y1="6461.59" x2="205.786" y2="-141.999" stroke="#4ECDC4"/>
<line x1="219.472" y1="6461.59" x2="219.472" y2="-141.999" stroke="#4ECDC4"/>
<line x1="233.157" y1="6461.59" x2="233.157" y2="-141.999" stroke="#4ECDC4"/>
<line x1="246.843" y1="6461.59" x2="246.843" y2="-141.999" stroke="#4ECDC4"/>
<line x1="260.528" y1="6461.59" x2="260.528" y2="-141.999" stroke="#4ECDC4"/>
<line x1="274.214" y1="6461.59" x2="274.214" y2="-141.999" stroke="#4ECDC4"/>
<line x1="311.9" y1="6750.01" x2="311.9" y2="-141.999" stroke="#4ECDC4"/>
<line x1="301.586" y1="6461.59" x2="301.586" y2="-141.999" stroke="#4ECDC4"/>
<line x1="315.271" y1="6461.59" x2="315.271" y2="-141.999" stroke="#4ECDC4"/>
<line x1="356.385" y1="6750.01" x2="356.385" y2="-141.999" stroke="#4ECDC4"/>
<line x1="342.643" y1="6461.59" x2="342.643" y2="-141.999" stroke="#4ECDC4"/>
<line x1="356.329" y1="6461.59" x2="356.329" y2="-141.999" stroke="#4ECDC4"/>
<line x1="370.014" y1="6461.59" x2="370.014" y2="-141.999" stroke="#4ECDC4"/>
<line x1="383.7" y1="6461.59" x2="383.7" y2="-141.999" stroke="#4ECDC4"/>
<line x1="397.386" y1="6461.59" x2="397.386" y2="-141.999" stroke="#4ECDC4"/>
<line x1="411.071" y1="6461.59" x2="411.071" y2="-141.999" stroke="#4ECDC4"/>
<line x1="424.757" y1="6461.59" x2="424.757" y2="-141.999" stroke="#4ECDC4"/>
<line x1="438.443" y1="6461.59" x2="438.443" y2="-141.999" stroke="#4ECDC4"/>
<line x1="452.128" y1="6461.59" x2="452.128" y2="-141.999" stroke="#4ECDC4"/>
<line x1="465.814" y1="6461.59" x2="465.814" y2="-141.999" stroke="#4ECDC4"/>
<line x1="519.5" y1="6750.01" x2="519.5" y2="-141.999" stroke="#4ECDC4"/>
<line x1="493.186" y1="6461.59" x2="493.186" y2="-141.999" stroke="#4ECDC4"/>
<line x1="506.872" y1="6461.59" x2="506.872" y2="-141.999" stroke="#4ECDC4"/>
<line x1="520.557" y1="6461.59" x2="520.557" y2="-141.999" stroke="#4ECDC4"/>
<line x1="534.243" y1="6461.59" x2="534.243" y2="-141.999" stroke="#4ECDC4"/>
<line x1="547.929" y1="6461.59" x2="547.929" y2="-141.999" stroke="#4ECDC4"/>
<line x1="561.614" y1="6461.59" x2="561.614" y2="-141.999" stroke="#4ECDC4"/>
<line x1="575.3" y1="6461.59" x2="575.3" y2="-141.999" stroke="#4ECDC4"/>
<line x1="588.986" y1="6461.59" x2="588.986" y2="-141.999" stroke="#4ECDC4"/>
<line x1="602.671" y1="6461.59" x2="602.671" y2="-141.999" stroke="#4ECDC4"/>
<line x1="616.357" y1="6461.59" x2="616.357" y2="-141.999" stroke="#4ECDC4"/>
<line x1="630.043" y1="6461.59" x2="630.043" y2="-141.999" stroke="#4ECDC4"/>
<line x1="643.729" y1="6461.59" x2="643.729" y2="-141.999" stroke="#4ECDC4"/>
<line x1="657.414" y1="6461.59" x2="657.414" y2="-141.999" stroke="#4ECDC4"/>
<line x1="671.1" y1="6461.59" x2="671.1" y2="-141.999" stroke="#4ECDC4"/>
<line x1="684.786" y1="6461.59" x2="684.786" y2="-141.999" stroke="#4ECDC4"/>
<line x1="698.472" y1="6461.59" x2="698.472" y2="-141.999" stroke="#4ECDC4"/>
<line x1="712.157" y1="6461.59" x2="712.157" y2="-141.999" stroke="#4ECDC4"/>
<line x1="725.843" y1="6461.59" x2="725.843" y2="-141.999" stroke="#4ECDC4"/>
<line x1="801.242" y1="6750.01" x2="801.242" y2="-141.999" stroke="#4ECDC4"/>
<line x1="753.214" y1="6461.59" x2="753.214" y2="-141.999" stroke="#4ECDC4"/>
<line x1="766.9" y1="6461.59" x2="766.9" y2="-141.999" stroke="#4ECDC4"/>
<line x1="845.729" y1="6750.01" x2="845.729" y2="-141.999" stroke="#4ECDC4"/>
<line x1="794.271" y1="6461.59" x2="794.271" y2="-141.999" stroke="#4ECDC4"/>
<line x1="807.957" y1="6461.59" x2="807.957" y2="-141.999" stroke="#4ECDC4"/>
<line x1="821.643" y1="6461.59" x2="821.643" y2="-141.999" stroke="#4ECDC4"/>
<line x1="835.329" y1="6461.59" x2="835.329" y2="-141.999" stroke="#4ECDC4"/>
<line x1="849.014" y1="6461.59" x2="849.014" y2="-141.999" stroke="#4ECDC4"/>
<line x1="862.7" y1="6461.59" x2="862.7" y2="-141.999" stroke="#4ECDC4"/>
<line x1="876.386" y1="6461.59" x2="876.386" y2="-141.999" stroke="#4ECDC4"/>
<line x1="890.071" y1="6461.59" x2="890.071" y2="-141.999" stroke="#4ECDC4"/>
<line x1="903.757" y1="6461.59" x2="903.757" y2="-141.999" stroke="#4ECDC4"/>
<line x1="917.443" y1="6461.59" x2="917.443" y2="-141.999" stroke="#4ECDC4"/>
<line x1="931.128" y1="6461.59" x2="931.128" y2="-141.999" stroke="#4ECDC4"/>
<line x1="944.814" y1="6461.59" x2="944.814" y2="-141.999" stroke="#4ECDC4"/>
<line x1="958.5" y1="6461.59" x2="958.5" y2="-141.999" stroke="#4ECDC4"/>
<line x1="972.186" y1="6461.59" x2="972.186" y2="-141.999" stroke="#4ECDC4"/>
<line x1="1068.16" y1="6750.01" x2="1068.16" y2="-141.999" stroke="#4ECDC4"/>
<line x1="999.557" y1="6461.59" x2="999.557" y2="-141.999" stroke="#4ECDC4"/>
<line x1="1097.81" y1="6750.01" x2="1097.81" y2="-141.999" stroke="#4ECDC4"/>
<line x1="1026.93" y1="6461.59" x2="1026.93" y2="-141.999" stroke="#4ECDC4"/>
<line x1="1040.61" y1="6461.59" x2="1040.61" y2="-141.999" stroke="#4ECDC4"/>
<line x1="1054.3" y1="6461.59" x2="1054.3" y2="-141.999" stroke="#4ECDC4"/>
<line x1="1067.99" y1="6461.59" x2="1067.99" y2="-141.999" stroke="#4ECDC4"/>
<line x1="1081.67" y1="6461.59" x2="1081.67" y2="-141.999" stroke="#4ECDC4"/>
<line x1="1095.36" y1="6461.59" x2="1095.36" y2="-141.999" stroke="#4ECDC4"/>
<line x1="1109.04" y1="6461.59" x2="1109.04" y2="-141.999" stroke="#4ECDC4"/>
<line x1="1216.44" y1="6750.01" x2="1216.44" y2="-141.999" stroke="#4ECDC4"/>
<line x1="1136.41" y1="6461.59" x2="1136.41" y2="-141.999" stroke="#4ECDC4"/>
<line x1="1150.1" y1="6461.59" x2="1150.1" y2="-141.999" stroke="#4ECDC4"/>
<line x1="1163.79" y1="6461.59" x2="1163.79" y2="-141.999" stroke="#4ECDC4"/>
<line x1="1177.47" y1="6461.59" x2="1177.47" y2="-141.999" stroke="#4ECDC4"/>
<line x1="1191.16" y1="6461.59" x2="1191.16" y2="-141.999" stroke="#4ECDC4"/>
<line x1="1204.84" y1="6461.59" x2="1204.84" y2="-141.999" stroke="#4ECDC4"/>
<line x1="1218.53" y1="6461.59" x2="1218.53" y2="-141.999" stroke="#4ECDC4"/>
<line x1="1232.21" y1="6461.59" x2="1232.21" y2="-141.999" stroke="#4ECDC4"/>
<line x1="1245.9" y1="6461.59" x2="1245.9" y2="-141.999" stroke="#4ECDC4"/>
<line x1="1259.59" y1="6461.59" x2="1259.59" y2="-141.999" stroke="#4ECDC4"/>
<line x1="1273.27" y1="6461.59" x2="1273.27" y2="-141.999" stroke="#4ECDC4"/>
<line x1="1286.96" y1="6461.59" x2="1286.96" y2="-141.999" stroke="#4ECDC4"/>
<line x1="1300.64" y1="6461.59" x2="1300.64" y2="-141.999" stroke="#4ECDC4"/>
<line x1="1314.33" y1="6461.59" x2="1314.33" y2="-141.999" stroke="#4ECDC4"/>
<line x1="1328.01" y1="6461.59" x2="1328.01" y2="-141.999" stroke="#4ECDC4"/>
<line x1="1341.7" y1="6461.59" x2="1341.7" y2="-141.999" stroke="#4ECDC4"/>
<line x1="1355.39" y1="6461.59" x2="1355.39" y2="-141.999" stroke="#4ECDC4"/>
<line x1="1369.07" y1="6461.59" x2="1369.07" y2="-141.999" stroke="#4ECDC4"/>
<line x1="1382.76" y1="6461.59" x2="1382.76" y2="-141.999" stroke="#4ECDC4"/>
<line x1="1396.44" y1="6461.59" x2="1396.44" y2="-141.999" stroke="#4ECDC4"/>
<line x1="1410.13" y1="6461.59" x2="1410.13" y2="-141.999" stroke="#4ECDC4"/>
<line x1="1423.81" y1="6461.59" x2="1423.81" y2="-141.999" stroke="#4ECDC4"/>
<line x1="1" y1="8.40942" x2="1434.27" y2="8.40942" stroke="#4ECDC4"/>
<line x1="1" y1="83.8633" x2="1434.27" y2="83.8633" stroke="#4ECDC4"/>
<line x1="1" y1="159.318" x2="1434.27" y2="159.318" stroke="#4ECDC4"/>
<line x1="1" y1="234.772" x2="1434.27" y2="234.772" stroke="#4ECDC4"/>
<line opacity="0.6" x1="1" y1="310.228" x2="1434.27" y2="310.228" stroke="#4ECDC4"/>
<line x1="1" y1="385.682" x2="1434.27" y2="385.682" stroke="#4ECDC4"/>
<line x1="1" y1="461.136" x2="1434.27" y2="461.136" stroke="#4ECDC4"/>
<line x1="1" y1="536.591" x2="1434.27" y2="536.591" stroke="#4ECDC4"/>
<line x1="1" y1="612.045" x2="1434.27" y2="612.045" stroke="#4ECDC4"/>
<line x1="1" y1="687.5" x2="1434.27" y2="687.5" stroke="#4ECDC4"/>
<line x1="1" y1="762.955" x2="1434.27" y2="762.955" stroke="#4ECDC4"/>
<line x1="1" y1="838.409" x2="1434.27" y2="838.409" stroke="#4ECDC4"/>
<line x1="1" y1="913.864" x2="1434.27" y2="913.864" stroke="#4ECDC4"/>
<line x1="1" y1="1038.75" x2="1553.96" y2="1038.75" stroke="#4ECDC4"/>
<line x1="1" y1="1064.77" x2="1434.27" y2="1064.77" stroke="#4ECDC4"/>
<line x1="1" y1="1140.23" x2="1434.27" y2="1140.23" stroke="#4ECDC4"/>
<line x1="1" y1="1215.68" x2="1434.27" y2="1215.68" stroke="#4ECDC4"/>
<line x1="1" y1="1291.14" x2="1434.27" y2="1291.14" stroke="#4ECDC4"/>
<line x1="1" y1="1366.59" x2="1434.27" y2="1366.59" stroke="#4ECDC4"/>
<line x1="1" y1="1442.05" x2="1434.27" y2="1442.05" stroke="#4ECDC4"/>
<line x1="1" y1="1517.5" x2="1434.27" y2="1517.5" stroke="#4ECDC4"/>
<line x1="1" y1="1592.95" x2="1434.27" y2="1592.95" stroke="#4ECDC4"/>
<line x1="1" y1="1668.41" x2="1434.27" y2="1668.41" stroke="#4ECDC4"/>
<line x1="1" y1="1743.86" x2="1434.27" y2="1743.86" stroke="#4ECDC4"/>
<line x1="1" y1="1819.32" x2="1434.27" y2="1819.32" stroke="#4ECDC4"/>
<line x1="1" y1="1894.77" x2="1434.27" y2="1894.77" stroke="#4ECDC4"/>
<line x1="1" y1="1970.23" x2="1434.27" y2="1970.23" stroke="#4ECDC4"/>
<line x1="1" y1="2045.68" x2="1434.27" y2="2045.68" stroke="#4ECDC4"/>
<line x1="1" y1="2220" x2="1553.96" y2="2220" stroke="#4ECDC4"/>
<line x1="1" y1="2196.59" x2="1434.27" y2="2196.59" stroke="#4ECDC4"/>
<line x1="1" y1="2272.05" x2="1434.27" y2="2272.05" stroke="#4ECDC4"/>
<line x1="1" y1="2347.5" x2="1434.27" y2="2347.5" stroke="#4ECDC4"/>
<line x1="1" y1="2535" x2="1553.96" y2="2535" stroke="#4ECDC4"/>
<line x1="1" y1="2498.41" x2="1434.27" y2="2498.41" stroke="#4ECDC4"/>
<line x1="1" y1="2573.86" x2="1434.27" y2="2573.86" stroke="#4ECDC4"/>
<line x1="1" y1="2649.32" x2="1434.27" y2="2649.32" stroke="#4ECDC4"/>
<line x1="1" y1="2850" x2="1553.96" y2="2850" stroke="#4ECDC4"/>
<line x1="1" y1="2928.75" x2="1553.96" y2="2928.75" stroke="#4ECDC4"/>
<line x1="1" y1="3007.5" x2="1553.96" y2="3007.5" stroke="#4ECDC4"/>
<line x1="1" y1="3086.25" x2="1553.96" y2="3086.25" stroke="#4ECDC4"/>
<line x1="1" y1="3165" x2="1553.96" y2="3165" stroke="#4ECDC4"/>
<line x1="1" y1="3243.75" x2="1553.96" y2="3243.75" stroke="#4ECDC4"/>
<line x1="1" y1="3322.5" x2="1553.96" y2="3322.5" stroke="#4ECDC4"/>
<line x1="1" y1="3401.25" x2="1553.96" y2="3401.25" stroke="#4ECDC4"/>
<line x1="1" y1="3480" x2="1553.96" y2="3480" stroke="#4ECDC4"/>
<line x1="1" y1="3558.75" x2="1553.96" y2="3558.75" stroke="#4ECDC4"/>
<line x1="1" y1="3637.5" x2="1553.96" y2="3637.5" stroke="#4ECDC4"/>
<line x1="1" y1="3716.25" x2="1553.96" y2="3716.25" stroke="#4ECDC4"/>
<line x1="1" y1="3795" x2="1553.96" y2="3795" stroke="#4ECDC4"/>
<line x1="1" y1="3873.75" x2="1553.96" y2="3873.75" stroke="#4ECDC4"/>
<line x1="1" y1="3952.5" x2="1553.96" y2="3952.5" stroke="#4ECDC4"/>
<line x1="1" y1="4031.25" x2="1553.96" y2="4031.25" stroke="#4ECDC4"/>
<line x1="1" y1="4110" x2="1553.96" y2="4110" stroke="#4ECDC4"/>
<line x1="1" y1="4188.75" x2="1553.96" y2="4188.75" stroke="#4ECDC4"/>
<line x1="1" y1="4267.5" x2="1553.96" y2="4267.5" stroke="#4ECDC4"/>
<line x1="1" y1="4346.25" x2="1553.96" y2="4346.25" stroke="#4ECDC4"/>
<line x1="1" y1="4425" x2="1553.96" y2="4425" stroke="#4ECDC4"/>
<line x1="1" y1="4503.75" x2="1553.96" y2="4503.75" stroke="#4ECDC4"/>
<line x1="1" y1="4582.5" x2="1553.96" y2="4582.5" stroke="#4ECDC4"/>
<line x1="1" y1="4661.25" x2="1553.96" y2="4661.25" stroke="#4ECDC4"/>
<line x1="1" y1="4740" x2="1553.96" y2="4740" stroke="#4ECDC4"/>
<line x1="1" y1="4818.75" x2="1553.96" y2="4818.75" stroke="#4ECDC4"/>
<line x1="1" y1="4897.5" x2="1553.96" y2="4897.5" stroke="#4ECDC4"/>
<line x1="1" y1="4976.25" x2="1553.96" y2="4976.25" stroke="#4ECDC4"/>
<line x1="1" y1="5055" x2="1553.96" y2="5055" stroke="#4ECDC4"/>
<line x1="1" y1="5133.75" x2="1553.96" y2="5133.75" stroke="#4ECDC4"/>
<line x1="1" y1="5212.5" x2="1553.96" y2="5212.5" stroke="#4ECDC4"/>
<line x1="1" y1="5291.25" x2="1553.96" y2="5291.25" stroke="#4ECDC4"/>
<line x1="1" y1="5370" x2="1553.96" y2="5370" stroke="#4ECDC4"/>
<line x1="1" y1="5448.75" x2="1553.96" y2="5448.75" stroke="#4ECDC4"/>
<line x1="1" y1="5527.5" x2="1553.96" y2="5527.5" stroke="#4ECDC4"/>
<line x1="1" y1="5606.25" x2="1553.96" y2="5606.25" stroke="#4ECDC4"/>
<line x1="1" y1="5685" x2="1553.96" y2="5685" stroke="#4ECDC4"/>
<line x1="1" y1="5763.75" x2="1553.96" y2="5763.75" stroke="#4ECDC4"/>
<line x1="1" y1="5842.5" x2="1553.96" y2="5842.5" stroke="#4ECDC4"/>
<line x1="1" y1="5921.25" x2="1553.96" y2="5921.25" stroke="#4ECDC4"/>
<line x1="1" y1="6000" x2="1553.96" y2="6000" stroke="#4ECDC4"/>
<line x1="1" y1="6078.75" x2="1553.96" y2="6078.75" stroke="#4ECDC4"/>
<line x1="1" y1="6157.5" x2="1553.96" y2="6157.5" stroke="#4ECDC4"/>
<line x1="1" y1="6236.25" x2="1553.96" y2="6236.25" stroke="#4ECDC4"/>
</g>
</svg>
