<svg width="279" height="124" viewBox="0 0 279 124" fill="none" xmlns="http://www.w3.org/2000/svg">
<g filter="url(#filter0_d_111_1049)">
<path d="M86.08 42C85.8133 42 85.5867 41.9067 85.4 41.72C85.2133 41.5333 85.12 41.3067 85.12 41.04V15C85.12 14.7067 85.2133 14.4667 85.4 14.28C85.5867 14.0933 85.8133 14 86.08 14H103.68C103.973 14 104.213 14.0933 104.4 14.28C104.587 14.4667 104.68 14.7067 104.68 15V17.64C104.68 17.9067 104.587 18.1333 104.4 18.32C104.213 18.5067 103.973 18.6 103.68 18.6H90.52V25.68H102.8C103.093 25.68 103.333 25.7733 103.52 25.96C103.707 26.12 103.8 26.3467 103.8 26.64V29.12C103.8 29.4133 103.707 29.6533 103.52 29.84C103.333 30 103.093 30.08 102.8 30.08H90.52V37.4H104C104.293 37.4 104.533 37.4933 104.72 37.68C104.907 37.8667 105 38.1067 105 38.4V41.04C105 41.3067 104.907 41.5333 104.72 41.72C104.533 41.9067 104.293 42 104 42H86.08ZM110.523 42C110.256 42 110.029 41.9067 109.843 41.72C109.656 41.5333 109.563 41.3067 109.563 41.04V14.56C109.563 14.2933 109.656 14.0667 109.843 13.88C110.029 13.6933 110.256 13.6 110.523 13.6H113.843C114.109 13.6 114.336 13.6933 114.523 13.88C114.709 14.0667 114.803 14.2933 114.803 14.56V41.04C114.803 41.3067 114.709 41.5333 114.523 41.72C114.336 41.9067 114.109 42 113.843 42H110.523ZM129.069 42.4C126.109 42.4 123.762 41.5467 122.029 39.84C120.295 38.1333 119.362 35.7067 119.229 32.56C119.202 32.2933 119.189 31.96 119.189 31.56C119.189 31.1333 119.202 30.8 119.229 30.56C119.335 28.5333 119.789 26.8 120.589 25.36C121.415 23.8933 122.549 22.7733 123.989 22C125.429 21.2 127.122 20.8 129.069 20.8C131.229 20.8 133.042 21.2533 134.509 22.16C135.975 23.04 137.082 24.28 137.829 25.88C138.575 27.4533 138.949 29.28 138.949 31.36V32.2C138.949 32.4667 138.855 32.6933 138.669 32.88C138.482 33.0667 138.242 33.16 137.949 33.16H124.669C124.669 33.16 124.669 33.2 124.669 33.28C124.669 33.36 124.669 33.4267 124.669 33.48C124.695 34.4133 124.869 35.28 125.189 36.08C125.535 36.8533 126.029 37.48 126.669 37.96C127.335 38.44 128.122 38.68 129.029 38.68C129.775 38.68 130.402 38.5733 130.909 38.36C131.415 38.12 131.829 37.8533 132.149 37.56C132.469 37.2667 132.695 37.0267 132.829 36.84C133.069 36.52 133.255 36.3333 133.389 36.28C133.549 36.2 133.775 36.16 134.069 36.16H137.509C137.775 36.16 137.989 36.24 138.149 36.4C138.335 36.56 138.415 36.76 138.389 37C138.362 37.4267 138.135 37.9467 137.709 38.56C137.309 39.1733 136.722 39.7733 135.949 40.36C135.175 40.9467 134.202 41.44 133.029 41.84C131.882 42.2133 130.562 42.4 129.069 42.4ZM124.669 29.8H133.509V29.68C133.509 28.64 133.335 27.7333 132.989 26.96C132.642 26.16 132.135 25.5467 131.469 25.12C130.802 24.6667 130.002 24.44 129.069 24.44C128.135 24.44 127.335 24.6667 126.669 25.12C126.002 25.5467 125.495 26.16 125.149 26.96C124.829 27.7333 124.669 28.64 124.669 29.68V29.8ZM144.155 42C143.888 42 143.661 41.9067 143.475 41.72C143.288 41.5333 143.195 41.3067 143.195 41.04V22.16C143.195 21.8933 143.288 21.6667 143.475 21.48C143.661 21.2933 143.888 21.2 144.155 21.2H147.275C147.541 21.2 147.768 21.2933 147.955 21.48C148.141 21.6667 148.235 21.8933 148.235 22.16V23.52C148.795 22.7733 149.541 22.1467 150.475 21.64C151.435 21.1067 152.568 20.8267 153.875 20.8C156.915 20.7467 159.035 21.9333 160.235 24.36C160.848 23.2933 161.728 22.44 162.875 21.8C164.048 21.1333 165.341 20.8 166.755 20.8C168.141 20.8 169.395 21.12 170.515 21.76C171.661 22.4 172.555 23.3733 173.195 24.68C173.861 25.96 174.195 27.5867 174.195 29.56V41.04C174.195 41.3067 174.101 41.5333 173.915 41.72C173.728 41.9067 173.501 42 173.235 42H169.955C169.688 42 169.461 41.9067 169.275 41.72C169.088 41.5333 168.995 41.3067 168.995 41.04V29.88C168.995 28.68 168.821 27.7333 168.475 27.04C168.128 26.32 167.661 25.8133 167.075 25.52C166.488 25.2267 165.835 25.08 165.115 25.08C164.528 25.08 163.941 25.2267 163.355 25.52C162.768 25.8133 162.288 26.32 161.915 27.04C161.541 27.7333 161.355 28.68 161.355 29.88V41.04C161.355 41.3067 161.261 41.5333 161.075 41.72C160.888 41.9067 160.661 42 160.395 42H157.115C156.848 42 156.621 41.9067 156.435 41.72C156.248 41.5333 156.155 41.3067 156.155 41.04V29.88C156.155 28.68 155.968 27.7333 155.595 27.04C155.221 26.32 154.741 25.8133 154.155 25.52C153.568 25.2267 152.941 25.08 152.275 25.08C151.661 25.08 151.061 25.24 150.475 25.56C149.888 25.8533 149.408 26.3467 149.035 27.04C148.661 27.7333 148.475 28.68 148.475 29.88V41.04C148.475 41.3067 148.381 41.5333 148.195 41.72C148.008 41.9067 147.781 42 147.515 42H144.155ZM188.248 42.4C185.288 42.4 182.942 41.5467 181.208 39.84C179.475 38.1333 178.542 35.7067 178.408 32.56C178.382 32.2933 178.368 31.96 178.368 31.56C178.368 31.1333 178.382 30.8 178.408 30.56C178.515 28.5333 178.968 26.8 179.768 25.36C180.595 23.8933 181.728 22.7733 183.168 22C184.608 21.2 186.302 20.8 188.248 20.8C190.408 20.8 192.222 21.2533 193.688 22.16C195.155 23.04 196.262 24.28 197.008 25.88C197.755 27.4533 198.128 29.28 198.128 31.36V32.2C198.128 32.4667 198.035 32.6933 197.848 32.88C197.662 33.0667 197.422 33.16 197.128 33.16H183.848C183.848 33.16 183.848 33.2 183.848 33.28C183.848 33.36 183.848 33.4267 183.848 33.48C183.875 34.4133 184.048 35.28 184.368 36.08C184.715 36.8533 185.208 37.48 185.848 37.96C186.515 38.44 187.302 38.68 188.208 38.68C188.955 38.68 189.582 38.5733 190.088 38.36C190.595 38.12 191.008 37.8533 191.328 37.56C191.648 37.2667 191.875 37.0267 192.008 36.84C192.248 36.52 192.435 36.3333 192.568 36.28C192.728 36.2 192.955 36.16 193.248 36.16H196.688C196.955 36.16 197.168 36.24 197.328 36.4C197.515 36.56 197.595 36.76 197.568 37C197.542 37.4267 197.315 37.9467 196.888 38.56C196.488 39.1733 195.902 39.7733 195.128 40.36C194.355 40.9467 193.382 41.44 192.208 41.84C191.062 42.2133 189.742 42.4 188.248 42.4ZM183.848 29.8H192.688V29.68C192.688 28.64 192.515 27.7333 192.168 26.96C191.822 26.16 191.315 25.5467 190.648 25.12C189.982 24.6667 189.182 24.44 188.248 24.44C187.315 24.44 186.515 24.6667 185.848 25.12C185.182 25.5467 184.675 26.16 184.328 26.96C184.008 27.7333 183.848 28.64 183.848 29.68V29.8ZM203.334 42C203.068 42 202.841 41.9067 202.654 41.72C202.468 41.5333 202.374 41.3067 202.374 41.04V22.16C202.374 21.8933 202.468 21.6667 202.654 21.48C202.841 21.2933 203.068 21.2 203.334 21.2H206.614C206.881 21.2 207.108 21.2933 207.294 21.48C207.481 21.6667 207.574 21.8933 207.574 22.16V23.8C208.268 22.9467 209.148 22.24 210.214 21.68C211.308 21.0933 212.654 20.8 214.254 20.8C215.881 20.8 217.294 21.1733 218.494 21.92C219.694 22.64 220.614 23.6667 221.254 25C221.921 26.3333 222.254 27.9333 222.254 29.8V41.04C222.254 41.3067 222.161 41.5333 221.974 41.72C221.788 41.9067 221.561 42 221.294 42H217.774C217.508 42 217.281 41.9067 217.094 41.72C216.908 41.5333 216.814 41.3067 216.814 41.04V30.04C216.814 28.4933 216.428 27.28 215.654 26.4C214.908 25.52 213.814 25.08 212.374 25.08C210.988 25.08 209.881 25.52 209.054 26.4C208.228 27.28 207.814 28.4933 207.814 30.04V41.04C207.814 41.3067 207.721 41.5333 207.534 41.72C207.348 41.9067 207.121 42 206.854 42H203.334ZM236.501 42C234.901 42 233.554 41.72 232.461 41.16C231.368 40.6 230.554 39.7733 230.021 38.68C229.488 37.56 229.221 36.1733 229.221 34.52V25.44H226.061C225.794 25.44 225.568 25.3467 225.381 25.16C225.194 24.9733 225.101 24.7333 225.101 24.44V22.16C225.101 21.8933 225.194 21.6667 225.381 21.48C225.568 21.2933 225.794 21.2 226.061 21.2H229.221V14.56C229.221 14.2933 229.301 14.0667 229.461 13.88C229.648 13.6933 229.888 13.6 230.181 13.6H233.421C233.688 13.6 233.914 13.6933 234.101 13.88C234.288 14.0667 234.381 14.2933 234.381 14.56V21.2H239.381C239.648 21.2 239.874 21.2933 240.061 21.48C240.248 21.6667 240.341 21.8933 240.341 22.16V24.44C240.341 24.7333 240.248 24.9733 240.061 25.16C239.874 25.3467 239.648 25.44 239.381 25.44H234.381V34.12C234.381 35.2133 234.568 36.0667 234.941 36.68C235.341 37.2933 236.021 37.6 236.981 37.6H239.741C240.008 37.6 240.234 37.6933 240.421 37.88C240.608 38.0667 240.701 38.2933 240.701 38.56V41.04C240.701 41.3067 240.608 41.5333 240.421 41.72C240.234 41.9067 240.008 42 239.741 42H236.501Z" fill="white"/>
<path d="M245.689 42C245.423 42 245.196 41.9067 245.009 41.72C244.823 41.5333 244.729 41.3067 244.729 41.04V15C244.729 14.7067 244.823 14.4667 245.009 14.28C245.196 14.0933 245.423 14 245.689 14H263.049C263.343 14 263.583 14.0933 263.769 14.28C263.956 14.4667 264.049 14.7067 264.049 15V17.8C264.049 18.0933 263.956 18.3333 263.769 18.52C263.583 18.68 263.343 18.76 263.049 18.76H250.209V26.36H262.249C262.543 26.36 262.783 26.4533 262.969 26.64C263.156 26.8267 263.249 27.0667 263.249 27.36V30.16C263.249 30.4267 263.156 30.6533 262.969 30.84C262.783 31.0267 262.543 31.12 262.249 31.12H250.209V41.04C250.209 41.3067 250.116 41.5333 249.929 41.72C249.743 41.9067 249.503 42 249.209 42H245.689ZM269.545 42C269.279 42 269.052 41.9067 268.865 41.72C268.679 41.5333 268.585 41.3067 268.585 41.04V22.16C268.585 21.8933 268.679 21.6667 268.865 21.48C269.052 21.2933 269.279 21.2 269.545 21.2H272.865C273.159 21.2 273.385 21.2933 273.545 21.48C273.732 21.6667 273.825 21.8933 273.825 22.16V41.04C273.825 41.3067 273.732 41.5333 273.545 41.72C273.385 41.9067 273.159 42 272.865 42H269.545ZM269.385 17.76C269.119 17.76 268.892 17.6667 268.705 17.48C268.519 17.2933 268.425 17.0667 268.425 16.8V13.92C268.425 13.6533 268.519 13.4267 268.705 13.24C268.892 13.0533 269.119 12.96 269.385 12.96H273.025C273.319 12.96 273.559 13.0533 273.745 13.24C273.932 13.4267 274.025 13.6533 274.025 13.92V16.8C274.025 17.0667 273.932 17.2933 273.745 17.48C273.559 17.6667 273.319 17.76 273.025 17.76H269.385Z" fill="#7ED4EF"/>
</g>
<g filter="url(#filter1_d_111_1049)">
<path d="M89.02 64.96H98.02C99.64 64.96 100.99 65.44 102.01 66.4C103.03 67.36 103.54 68.74 103.54 70.48V75.49H97.27V72.34C97.27 71.68 97.09 71.17 96.76 70.81C96.4 70.45 95.92 70.24 95.29 70.24H91.75C90.61 70.3 89.95 70.84 89.83 71.86V77.59C89.83 79.03 90.52 79.75 91.93 79.75H103.54V85H88.93C87.16 85 85.81 84.55 84.88 83.62C83.95 82.72 83.5 81.37 83.5 79.6V70.48C83.5 68.74 84.01 67.36 85.03 66.4C86.05 65.44 87.37 64.96 89.02 64.96ZM111.957 85C110.187 85 108.837 84.55 107.907 83.62C106.977 82.72 106.527 81.37 106.527 79.6V70.48C106.527 68.74 107.037 67.36 108.057 66.4C109.077 65.44 110.397 64.96 112.047 64.96H121.047C122.667 64.96 124.017 65.44 125.037 66.4C126.057 67.36 126.567 68.74 126.567 70.48V79.48C126.567 81.25 126.057 82.6 125.067 83.56C124.047 84.52 122.727 85 121.107 85H111.957ZM118.377 79.72C119.517 79.66 120.147 79.12 120.297 78.1V72.34C120.297 71.68 120.117 71.17 119.787 70.81C119.427 70.45 118.947 70.24 118.317 70.24H114.777C113.637 70.3 112.977 70.84 112.857 71.86V77.59C112.857 79.03 113.547 79.72 114.957 79.72H118.377ZM135.885 77.59V64.96H129.555V79.6C129.555 81.37 130.005 82.72 130.935 83.62C131.865 84.55 133.215 85 134.985 85H149.655V64.96H143.325V79.75H137.985C136.575 79.75 135.885 79.03 135.885 77.59ZM167.581 64.96V79.72L165.181 70.87C164.761 69.73 164.281 68.8 163.771 68.02C163.231 67.27 162.691 66.67 162.121 66.22C161.521 65.77 160.921 65.44 160.321 65.26C159.691 65.08 159.061 64.96 158.461 64.96H152.641V85H158.941V70.24L161.341 79.09C161.761 80.23 162.211 81.16 162.721 81.91C163.231 82.69 163.771 83.29 164.341 83.74C164.911 84.22 165.511 84.55 166.111 84.73C166.711 84.91 167.341 85 167.971 85H173.881V64.96H167.581ZM182.389 64.96H191.389C193.009 64.96 194.359 65.44 195.379 66.4C196.399 67.36 196.909 68.74 196.909 70.48V73.27H190.639V72.34C190.639 71.68 190.459 71.17 190.129 70.81C189.769 70.45 189.289 70.24 188.659 70.24H185.119C183.979 70.3 183.319 70.84 183.199 71.86V77.59C183.199 79.03 183.889 79.75 185.299 79.75H196.909V85H182.299C180.529 85 179.179 84.55 178.249 83.62C177.319 82.72 176.869 81.37 176.869 79.6V70.48C176.869 68.74 177.379 67.36 178.399 66.4C179.419 65.44 180.739 64.96 182.389 64.96ZM206.226 85H199.896V64.96H206.226V85ZM215.543 64.96H209.213V77.59C209.213 82.54 212.003 85 217.643 85H224.483V79.75H217.673C216.233 79.75 215.543 79.03 215.543 77.59V64.96ZM89.8 108.65C89.8 110.03 90.52 110.72 91.9 110.72H103.48V116H89.05C88.21 116 87.46 115.88 86.8 115.64C86.14 115.4 85.54 115.04 85.06 114.56C84.55 114.08 84.16 113.51 83.89 112.82C83.62 112.16 83.5 111.38 83.5 110.48V95.96H103.48V101.24H89.8V103.37H103.48V108.65H89.8ZM112.799 95.96H106.469V108.59C106.469 113.54 109.259 116 114.899 116H121.739V110.75H114.929C113.489 110.75 112.799 110.03 112.799 108.59V95.96ZM131.08 116V108.59H144.25V103.31H124.75V116H131.08ZM124.75 95.96V101.24H144.25V95.96H124.75ZM153.58 116H147.25V95.96H153.58V116ZM155.966 95.96L160.916 116H169.736C170.606 116 171.386 115.88 172.106 115.58C172.826 115.28 173.426 114.89 173.906 114.35C174.386 113.84 174.776 113.21 175.046 112.49C175.316 111.77 175.466 110.96 175.466 110.06V95.96H169.166V108.77C169.166 110.09 168.446 110.72 167.036 110.72H165.926L162.266 95.96H155.966ZM178.48 95.96H197.98V101.24H178.48V95.96ZM197.98 103.31V108.59H178.48V103.31H197.98ZM197.98 110.75V116H178.48V110.75H197.98ZM207.31 109.7V116H200.98V104.42H212.65C214.03 104.42 214.75 103.7 214.75 102.26V101.24H200.98V95.96H221.05V104.18C221.05 105.02 220.9 105.8 220.66 106.46C220.39 107.12 220.03 107.69 219.58 108.17C219.1 108.65 218.56 109.01 217.93 109.28C217.27 109.55 216.58 109.7 215.83 109.7C215.95 110.06 216.16 110.3 216.4 110.48C216.64 110.66 217.09 110.75 217.78 110.75H221.02V116H217.75C212.56 116 209.77 113.9 209.35 109.7H207.31ZM231.027 108.59H237.777C237.777 110.03 237.057 110.75 235.647 110.75H224.037V116H236.397C237.777 116 238.977 115.85 239.967 115.49C240.927 115.16 241.737 114.68 242.367 114.05C242.967 113.45 243.417 112.7 243.717 111.83C243.987 110.96 244.137 110 244.137 108.92C244.137 108.08 243.987 107.33 243.747 106.64C243.507 105.98 243.087 105.38 242.517 104.87C241.947 104.39 241.197 104 240.237 103.73C239.277 103.46 238.107 103.31 236.727 103.31H224.127C224.277 104.03 224.517 104.72 224.817 105.35C225.117 106.01 225.507 106.55 226.047 107.03C226.587 107.51 227.247 107.9 228.057 108.17C228.837 108.47 229.827 108.59 231.027 108.59ZM224.127 101.24H244.107V95.96H231.687C230.247 95.96 229.077 96.08 228.147 96.32C227.187 96.56 226.437 96.89 225.867 97.34C225.267 97.79 224.847 98.33 224.607 98.99C224.337 99.65 224.187 100.4 224.127 101.24ZM247.094 95.96H266.594V101.24H247.094V95.96ZM266.594 103.31V108.59H247.094V103.31H266.594ZM266.594 110.75V116H247.094V110.75H266.594Z" fill="#F7FFF7"/>
</g>
<mask id="mask0_111_1049" style="mask-type:alpha" maskUnits="userSpaceOnUse" x="4" y="0" width="61" height="56">
<path d="M27.8149 42.1497C19.4114 46.1083 9.55467 42.1358 5.79947 33.2768C2.04423 24.4176 5.81245 14.0266 14.216 10.0678C22.6195 6.10893 32.4762 10.0815 36.2314 18.9406C39.9866 27.7998 36.2184 38.1908 27.8149 42.1497Z" fill="black"/>
<path d="M58.0871 24.0797C52.2691 26.8205 45.4453 24.0703 42.8456 17.937C40.2457 11.8037 42.8545 4.60995 48.6723 1.86923C54.4903 -0.871493 61.3141 1.87872 63.9139 8.01198C66.5136 14.1452 63.9047 21.339 58.0871 24.0797Z" fill="black"/>
<path d="M54.0076 54.3338C49.321 56.5415 43.8239 54.3261 41.7296 49.3859C39.6353 44.4451 41.7368 38.65 46.4236 36.4422C51.1102 34.2343 56.6069 36.4498 58.7015 41.3907C60.7957 46.3309 58.6942 52.1261 54.0076 54.3338Z" fill="black"/>
</mask>
<g mask="url(#mask0_111_1049)">
<g filter="url(#filter2_d_111_1049)">
<path d="M-2.66369 49.3118C7.37434 72.9932 33.7219 83.612 56.1853 73.0299C78.6484 62.4472 88.7211 34.6714 78.6832 10.9902C68.6452 -12.691 42.2976 -23.3099 19.8343 -12.7276C-2.62903 -2.14533 -12.7017 25.6307 -2.66369 49.3118Z" fill="white"/>
<path d="M20.8451 37.2161C25.2503 47.6087 36.8129 52.2685 46.6708 47.6246C56.5291 42.9803 60.9492 30.791 56.5442 20.3986C52.1387 10.0061 40.5763 5.34608 30.7183 9.99009C20.8603 14.6341 16.4399 26.8236 20.8451 37.2161Z" fill="#8FD8E7"/>
</g>
</g>
<defs>
<filter id="filter0_d_111_1049" x="81.12" y="12.96" width="196.905" height="37.4399" filterUnits="userSpaceOnUse" color-interpolation-filters="sRGB">
<feFlood flood-opacity="0" result="BackgroundImageFix"/>
<feColorMatrix in="SourceAlpha" type="matrix" values="0 0 0 0 0 0 0 0 0 0 0 0 0 0 0 0 0 0 127 0" result="hardAlpha"/>
<feOffset dy="4"/>
<feGaussianBlur stdDeviation="2"/>
<feComposite in2="hardAlpha" operator="out"/>
<feColorMatrix type="matrix" values="0 0 0 0 0 0 0 0 0 0 0 0 0 0 0 0 0 0 0.25 0"/>
<feBlend mode="normal" in2="BackgroundImageFix" result="effect1_dropShadow_111_1049"/>
<feBlend mode="normal" in="SourceGraphic" in2="effect1_dropShadow_111_1049" result="shape"/>
</filter>
<filter id="filter1_d_111_1049" x="79.5" y="64.96" width="191.094" height="59.04" filterUnits="userSpaceOnUse" color-interpolation-filters="sRGB">
<feFlood flood-opacity="0" result="BackgroundImageFix"/>
<feColorMatrix in="SourceAlpha" type="matrix" values="0 0 0 0 0 0 0 0 0 0 0 0 0 0 0 0 0 0 127 0" result="hardAlpha"/>
<feOffset dy="4"/>
<feGaussianBlur stdDeviation="2"/>
<feComposite in2="hardAlpha" operator="out"/>
<feColorMatrix type="matrix" values="0 0 0 0 0 0 0 0 0 0 0 0 0 0 0 0 0 0 0.25 0"/>
<feBlend mode="normal" in2="BackgroundImageFix" result="effect1_dropShadow_111_1049"/>
<feBlend mode="normal" in="SourceGraphic" in2="effect1_dropShadow_111_1049" result="shape"/>
</filter>
<filter id="filter2_d_111_1049" x="-10.551" y="-16.8257" width="97.1215" height="101.954" filterUnits="userSpaceOnUse" color-interpolation-filters="sRGB">
<feFlood flood-opacity="0" result="BackgroundImageFix"/>
<feColorMatrix in="SourceAlpha" type="matrix" values="0 0 0 0 0 0 0 0 0 0 0 0 0 0 0 0 0 0 127 0" result="hardAlpha"/>
<feOffset dy="4"/>
<feGaussianBlur stdDeviation="2"/>
<feComposite in2="hardAlpha" operator="out"/>
<feColorMatrix type="matrix" values="0 0 0 0 0 0 0 0 0 0 0 0 0 0 0 0 0 0 0.25 0"/>
<feBlend mode="normal" in2="BackgroundImageFix" result="effect1_dropShadow_111_1049"/>
<feBlend mode="normal" in="SourceGraphic" in2="effect1_dropShadow_111_1049" result="shape"/>
</filter>
</defs>
</svg>
