<svg width="109" height="111" viewBox="0 0 109 111" fill="none" xmlns="http://www.w3.org/2000/svg">
<path d="M8.19761 76L54.5 0.952238L100.802 76H8.19761Z" fill="#000007" stroke="#F7FFF7"/>
<path d="M58.4664 29.875L57.693 53.5703H52.068L51.2711 29.875H58.4664ZM51.0836 60.9062C51.0836 59.9062 51.4274 59.0781 52.1149 58.4219C52.818 57.75 53.7399 57.4141 54.8805 57.4141C56.0367 57.4141 56.9586 57.75 57.6461 58.4219C58.3336 59.0781 58.6774 59.9062 58.6774 60.9062C58.6774 61.875 58.3336 62.6953 57.6461 63.3672C56.9586 64.0391 56.0367 64.375 54.8805 64.375C53.7399 64.375 52.818 64.0391 52.1149 63.3672C51.4274 62.6953 51.0836 61.875 51.0836 60.9062Z" fill="#F7FFF7"/>
<path d="M20.78 86.976H17.756V93.474C17.756 95.364 18.116 96.75 18.872 97.65C19.61 98.55 20.816 99 22.508 99H29.96V86.976H26.918V95.85H22.904C22.202 95.85 21.68 95.67 21.32 95.31C20.96 94.95 20.78 94.338 20.78 93.474V86.976ZM22.328 94.572H25.37V86.976H22.328V94.572ZM41.0969 86.976V90.144H35.4989C34.8149 90.144 34.4909 90.576 34.4909 91.44V92.052H41.0969V99H38.0549V95.22H34.4909V99H31.4669V90.378C31.4669 89.874 31.5209 89.406 31.6649 88.974C31.7909 88.56 31.9709 88.2 32.2229 87.894C32.4569 87.606 32.7449 87.372 33.0689 87.21C33.3929 87.066 33.7709 86.976 34.1669 86.976H41.0969ZM45.6535 95.22H46.6255C46.8055 97.74 48.1555 99 50.6575 99H52.2235V95.85H50.6755C50.3515 95.85 50.1175 95.796 50.0095 95.688C49.8835 95.58 49.7935 95.436 49.7395 95.22C50.0995 95.22 50.4235 95.13 50.7295 94.968C51.0355 94.806 51.3055 94.59 51.5215 94.302C51.7375 94.014 51.9175 93.672 52.0435 93.276C52.1695 92.88 52.2415 92.412 52.2415 91.908V86.976H42.6115V90.144H49.2175V90.756C49.2175 91.62 48.8755 92.052 48.2095 92.052H42.6115V99H45.6535V95.22ZM60.92 86.976H63.944V99H61.118C60.812 99 60.506 98.946 60.218 98.838C59.93 98.73 59.642 98.532 59.372 98.244C59.102 97.974 58.85 97.614 58.598 97.146C58.346 96.696 58.13 96.138 57.932 95.454L56.78 90.144V99H53.756V86.976H56.546C56.834 86.976 57.14 87.048 57.446 87.156C57.734 87.264 58.022 87.462 58.31 87.732C58.58 88.002 58.832 88.362 59.084 88.812C59.336 89.28 59.552 89.838 59.768 90.522L60.92 95.832V86.976ZM68.505 99V86.976H65.463V99H68.505ZM77.1798 86.976H80.2038V99H77.3778C77.0718 99 76.7658 98.946 76.4778 98.838C76.1898 98.73 75.9018 98.532 75.6318 98.244C75.3618 97.974 75.1098 97.614 74.8578 97.146C74.6058 96.696 74.3898 96.138 74.1918 95.454L73.0398 90.144V99H70.0158V86.976H72.8058C73.0938 86.976 73.3998 87.048 73.7058 87.156C73.9938 87.264 74.2818 87.462 74.5698 87.732C74.8398 88.002 75.0918 88.362 75.3438 88.812C75.5958 89.28 75.8118 89.838 76.0278 90.522L77.1798 95.832V86.976ZM91.3348 99V92.556H88.3108V95.832H85.6648C85.0528 95.832 84.7468 95.49 84.7468 94.788V91.422C84.7468 90.576 85.0708 90.144 85.7368 90.144H91.3348V86.976H85.6108C84.2428 86.976 83.2528 87.354 82.6408 88.074C82.0288 88.794 81.7228 89.91 81.7228 91.422V95.832C81.7228 96.858 81.9028 97.632 82.2988 98.136C82.6768 98.64 83.2528 98.928 84.0088 99H91.3348Z" fill="#F7FFF7"/>
</svg>
