<svg width="206" height="69" viewBox="0 0 206 69" fill="none" xmlns="http://www.w3.org/2000/svg">
<mask id="mask0" mask-type="alpha" maskUnits="userSpaceOnUse" x="0" y="0" width="73" height="69">
<path d="M26.2581 44.8967C18.6002 48.3187 9.61809 44.8849 6.19605 37.2269C2.77401 29.569 6.20789 20.5869 13.8658 17.1649C21.5237 13.7429 30.5058 17.1767 33.9279 24.8346C37.3499 32.4926 33.916 41.4746 26.2581 44.8967Z" fill="black"/>
<path d="M53.8442 29.2769C48.5426 31.646 42.3242 29.2687 39.9551 23.9671C37.586 18.6654 39.9633 12.4471 45.2649 10.078C50.5666 7.70886 56.785 10.0861 59.1541 15.3878C61.5232 20.6894 59.1459 26.9078 53.8442 29.2769Z" fill="black"/>
<path d="M50.1267 55.4289C45.8559 57.3374 40.8467 55.4223 38.9382 51.1516C37.0298 46.8808 38.9448 41.8716 43.2156 39.9631C47.4863 38.0547 52.4956 39.9697 54.404 44.2405C56.3125 48.5112 54.3974 53.5205 50.1267 55.4289Z" fill="black"/>
</mask>
<g mask="url(#mask0)">
<circle cx="35.5485" cy="34.525" r="40.5969" transform="rotate(65.9219 35.5485 34.525)"  fill="white"/>
<circle cx="36.1725" cy="33.3634" r="17.8159" transform="rotate(65.9219 36.1725 33.3634)" fill="#4BCCE7"/>
</g>
<path d="M71.9007 51.6576C71.7024 51.6576 71.5338 51.5882 71.395 51.4493C71.2562 51.3105 71.1868 51.142 71.1868 50.9437V31.5786C71.1868 31.3605 71.2463 31.182 71.3652 31.0432C71.5041 30.9044 71.6825 30.8349 71.9007 30.8349H84.9892C85.2073 30.8349 85.3858 30.9044 85.5246 31.0432C85.6635 31.182 85.7329 31.3605 85.7329 31.5786V33.5419C85.7329 33.76 85.6635 33.9385 85.5246 34.0773C85.3858 34.1963 85.2073 34.2558 84.9892 34.2558H75.2026V39.521H84.3348C84.5529 39.521 84.7314 39.5904 84.8702 39.7292C85.009 39.8482 85.0784 40.0167 85.0784 40.2349V42.0792C85.0784 42.2973 85.009 42.4758 84.8702 42.6146C84.7314 42.7336 84.5529 42.7931 84.3348 42.7931H75.2026V48.2367H85.2272C85.4453 48.2367 85.6238 48.3061 85.7626 48.4449C85.9014 48.5838 85.9708 48.7622 85.9708 48.9804V50.9437C85.9708 51.1618 85.9014 51.3403 85.7626 51.4791C85.6238 51.5981 85.4453 51.6576 85.2272 51.6576H71.9007Z" fill="white"/>
<path d="M90.078 51.6576C89.8797 51.6576 89.7111 51.5882 89.5723 51.4493C89.4335 51.3105 89.364 51.142 89.364 50.9437V31.2514C89.364 31.0333 89.4335 30.8647 89.5723 30.7457C89.7111 30.6069 89.8797 30.5375 90.078 30.5375H92.5469C92.7651 30.5375 92.9336 30.6069 93.0526 30.7457C93.1914 30.8647 93.2609 31.0333 93.2609 31.2514V50.9437C93.2609 51.142 93.1914 51.3105 93.0526 51.4493C92.9336 51.5882 92.7651 51.6576 92.5469 51.6576H90.078Z" fill="white"/>
<path d="M103.87 51.955C101.669 51.955 99.9136 51.3204 98.6048 50.0513C97.3158 48.7622 96.6316 46.9576 96.5523 44.6374L96.5225 43.8937L96.5523 43.15C96.6514 40.8893 97.3455 39.1144 98.6345 37.8254C99.9434 36.5364 101.689 35.8919 103.87 35.8919C106.21 35.8919 108.015 36.6058 109.284 38.0336C110.573 39.4615 111.217 41.3652 111.217 43.745V44.3697C111.217 44.568 111.148 44.7365 111.009 44.8753C110.87 45.0142 110.692 45.0836 110.474 45.0836H100.598V45.3215C100.637 46.4123 100.935 47.3344 101.49 48.088C102.065 48.8217 102.849 49.1886 103.84 49.1886C105.01 49.1886 105.952 48.7325 106.666 47.8203C106.845 47.6021 106.983 47.4633 107.083 47.4038C107.202 47.3443 107.37 47.3146 107.588 47.3146H110.146C110.325 47.3146 110.474 47.3741 110.593 47.493C110.731 47.5922 110.801 47.7211 110.801 47.8798C110.801 48.3557 110.513 48.9209 109.938 49.5753C109.383 50.2099 108.58 50.7652 107.529 51.2411C106.478 51.7171 105.258 51.955 103.87 51.955ZM107.172 42.5849V42.4956C107.172 41.3256 106.874 40.3836 106.279 39.6697C105.704 38.9558 104.901 38.5988 103.87 38.5988C102.839 38.5988 102.036 38.9558 101.46 39.6697C100.885 40.3836 100.598 41.3256 100.598 42.4956V42.5849H107.172Z" fill="white"/>
<path d="M115.089 51.6576C114.891 51.6576 114.722 51.5882 114.583 51.4493C114.444 51.3105 114.375 51.142 114.375 50.9437V36.9033C114.375 36.7049 114.444 36.5364 114.583 36.3976C114.722 36.2587 114.891 36.1893 115.089 36.1893H117.409C117.607 36.1893 117.776 36.2587 117.915 36.3976C118.054 36.5364 118.123 36.7049 118.123 36.9033V37.9146C119.154 36.5661 120.592 35.8919 122.436 35.8919C124.637 35.8919 126.174 36.7744 127.047 38.5393C127.523 37.7461 128.197 37.1115 129.07 36.6355C129.942 36.1398 130.884 35.8919 131.896 35.8919C133.522 35.8919 134.851 36.4471 135.882 37.5577C136.913 38.6682 137.429 40.2845 137.429 42.4064V50.9437C137.429 51.142 137.359 51.3105 137.22 51.4493C137.101 51.5882 136.933 51.6576 136.715 51.6576H134.275C134.077 51.6576 133.909 51.5882 133.77 51.4493C133.631 51.3105 133.561 51.142 133.561 50.9437V42.6444C133.561 41.395 133.294 40.4927 132.758 39.9374C132.243 39.3623 131.549 39.0748 130.676 39.0748C129.903 39.0748 129.238 39.3623 128.683 39.9374C128.148 40.5125 127.88 41.4148 127.88 42.6444V50.9437C127.88 51.142 127.81 51.3105 127.672 51.4493C127.533 51.5882 127.364 51.6576 127.166 51.6576H124.727C124.528 51.6576 124.36 51.5882 124.221 51.4493C124.082 51.3105 124.013 51.142 124.013 50.9437V42.6444C124.013 41.395 123.735 40.4927 123.18 39.9374C122.644 39.3623 121.96 39.0748 121.127 39.0748C120.334 39.0748 119.66 39.3623 119.105 39.9374C118.569 40.5125 118.301 41.4148 118.301 42.6444V50.9437C118.301 51.142 118.232 51.3105 118.093 51.4493C117.954 51.5882 117.786 51.6576 117.588 51.6576H115.089Z" fill="white"/>
<path d="M147.88 51.955C145.679 51.955 143.924 51.3204 142.615 50.0513C141.326 48.7622 140.641 46.9576 140.562 44.6374L140.532 43.8937L140.562 43.15C140.661 40.8893 141.355 39.1144 142.644 37.8254C143.953 36.5364 145.698 35.8919 147.88 35.8919C150.22 35.8919 152.025 36.6058 153.294 38.0336C154.583 39.4615 155.227 41.3652 155.227 43.745V44.3697C155.227 44.568 155.158 44.7365 155.019 44.8753C154.88 45.0142 154.702 45.0836 154.484 45.0836H144.608V45.3215C144.647 46.4123 144.945 47.3344 145.5 48.088C146.075 48.8217 146.859 49.1886 147.85 49.1886C149.02 49.1886 149.962 48.7325 150.676 47.8203C150.854 47.6021 150.993 47.4633 151.092 47.4038C151.211 47.3443 151.38 47.3146 151.598 47.3146H154.156C154.335 47.3146 154.484 47.3741 154.603 47.493C154.741 47.5922 154.811 47.7211 154.811 47.8798C154.811 48.3557 154.523 48.9209 153.948 49.5753C153.393 50.2099 152.59 50.7652 151.539 51.2411C150.488 51.7171 149.268 51.955 147.88 51.955ZM151.182 42.5849V42.4956C151.182 41.3256 150.884 40.3836 150.289 39.6697C149.714 38.9558 148.911 38.5988 147.88 38.5988C146.849 38.5988 146.045 38.9558 145.47 39.6697C144.895 40.3836 144.608 41.3256 144.608 42.4956V42.5849H151.182Z" fill="white"/>
<path d="M159.099 51.6576C158.9 51.6576 158.732 51.5882 158.593 51.4493C158.454 51.3105 158.385 51.142 158.385 50.9437V36.9033C158.385 36.7049 158.454 36.5364 158.593 36.3976C158.732 36.2587 158.9 36.1893 159.099 36.1893H161.538C161.736 36.1893 161.905 36.2587 162.044 36.3976C162.182 36.5364 162.252 36.7049 162.252 36.9033V38.1229C163.422 36.6355 165.078 35.8919 167.22 35.8919C169.044 35.8919 170.492 36.4967 171.563 37.7064C172.633 38.8963 173.169 40.5224 173.169 42.5849V50.9437C173.169 51.142 173.099 51.3105 172.961 51.4493C172.842 51.5882 172.673 51.6576 172.455 51.6576H169.837C169.639 51.6576 169.47 51.5882 169.332 51.4493C169.193 51.3105 169.123 51.142 169.123 50.9437V42.7633C169.123 41.5933 168.836 40.691 168.261 40.0564C167.705 39.402 166.892 39.0748 165.821 39.0748C164.77 39.0748 163.938 39.402 163.323 40.0564C162.728 40.7108 162.43 41.6131 162.43 42.7633V50.9437C162.43 51.142 162.361 51.3105 162.222 51.4493C162.103 51.5882 161.935 51.6576 161.716 51.6576H159.099Z" fill="white"/>
<path d="M183.764 51.6576C181.959 51.6576 180.601 51.1915 179.688 50.2595C178.796 49.3076 178.35 47.9194 178.35 46.095V39.3425H176C175.801 39.3425 175.633 39.2731 175.494 39.1342C175.355 38.9756 175.286 38.7971 175.286 38.5988V36.9033C175.286 36.7049 175.355 36.5364 175.494 36.3976C175.633 36.2587 175.801 36.1893 176 36.1893H178.35V31.2514C178.35 31.0333 178.419 30.8647 178.558 30.7457C178.697 30.6069 178.865 30.5375 179.064 30.5375H181.473C181.691 30.5375 181.86 30.6069 181.979 30.7457C182.118 30.8647 182.187 31.0333 182.187 31.2514V36.1893H185.905C186.123 36.1893 186.292 36.2587 186.411 36.3976C186.55 36.5165 186.619 36.6851 186.619 36.9033V38.5988C186.619 38.817 186.55 38.9954 186.411 39.1342C186.272 39.2731 186.104 39.3425 185.905 39.3425H182.187V45.7975C182.187 46.6502 182.336 47.2947 182.633 47.731C182.931 48.1673 183.426 48.3854 184.121 48.3854H186.173C186.371 48.3854 186.54 48.4549 186.679 48.5937C186.818 48.7325 186.887 48.9011 186.887 49.0994V50.9437C186.887 51.142 186.818 51.3105 186.679 51.4493C186.56 51.5882 186.391 51.6576 186.173 51.6576H183.764Z" fill="white"/>
<path d="M193.95 51.6722C193.75 51.6722 193.58 51.6023 193.441 51.4624C193.301 51.3225 193.231 51.1526 193.231 50.9528V39.2627H190.803C190.603 39.2627 190.433 39.1928 190.293 39.0529C190.153 38.893 190.083 38.7132 190.083 38.5133V36.8048C190.083 36.6049 190.153 36.4351 190.293 36.2952C190.433 36.1553 190.603 36.0854 190.803 36.0854H193.231V34.8564C193.231 31.2795 195.189 29.491 199.106 29.491H205.221C205.44 29.491 205.61 29.5609 205.73 29.7008C205.87 29.8207 205.94 29.9905 205.94 30.2104V31.9189C205.94 32.1387 205.87 32.3186 205.73 32.4585C205.59 32.5983 205.42 32.6683 205.221 32.6683H199.226C198.446 32.6683 197.897 32.8581 197.577 33.2378C197.277 33.6175 197.127 34.207 197.127 35.0063V36.0854H205.221C205.44 36.0854 205.61 36.1553 205.73 36.2952C205.87 36.4151 205.94 36.585 205.94 36.8048V50.9528C205.94 51.1526 205.87 51.3225 205.73 51.4624C205.61 51.6023 205.44 51.6722 205.221 51.6722H202.793C202.593 51.6722 202.423 51.6023 202.283 51.4624C202.143 51.3225 202.073 51.1526 202.073 50.9528V39.2627H197.127V50.9528C197.127 51.1526 197.057 51.3225 196.918 51.4624C196.778 51.6023 196.608 51.6722 196.408 51.6722H193.95Z" fill="#8FD8E7"/>
</svg>
