<?xml version="1.0" encoding="UTF-8"?>
<svg width="48px" height="48px" viewBox="0 0 48 48" version="1.1" xmlns="http://www.w3.org/2000/svg" xmlns:xlink="http://www.w3.org/1999/xlink">
    <title>64-lusd-icon</title>
    <defs>
        <rect id="path-1" x="0" y="0" width="48" height="48"></rect>
    </defs>
    <g id="高保真" stroke="none" stroke-width="1" fill="none" fill-rule="evenodd">
        <g id="质押确认稿" transform="translate(-400.000000, -591.000000)">
            <g id="64-lusd-icon" transform="translate(400.000000, 591.000000)">
                <mask id="mask-2" fill="white">
                    <use xlink:href="#path-1"></use>
                </mask>
                <g id="矩形"></g>
                <g id="_64-lusd-icon" mask="url(#mask-2)">
                    <g transform="translate(0.000000, -0.750000)" id="Group_3">
                        <g transform="translate(0.000000, 0.510750)">
                            <path d="M47.0385,31.01475 C44.5039046,39.7591875 37.2333445,46.3122811 28.2735,47.928 L28.2735,41.09775 C29.8931009,40.480832 31.3505896,39.5025037 32.535,38.23725 C33.1931441,37.5314006 33.7557073,36.7421479 34.20825,35.88975 C35.0694248,34.2660593 35.5151875,32.4544076 35.50575,30.6165 C35.50575,24.5775 31.14675,22.16475 27.06075,20.3745 L24.9915,19.46025 C22.77975,18.468 21.087,17.58525 21.087,16.07475 C21.087,13.986 22.9095,12.864 24.6285,12.864 C26.45775,12.864 27.49575,13.539 28.5915,15.43875 L29.44125,16.911 L34.90875,13.40175 L34.1955,12.07875 C32.9408103,9.68722338 30.822124,7.86354406 28.2705,6.97875 L28.2705,0.71475 C28.80225,0.8055 29.328,0.9225 29.85975,1.05825 C29.9115,1.071 29.97,1.0845 30.0285,1.09725 C30.0879394,1.1086373 30.1465659,1.12392026 30.204,1.143 C30.221741,1.14492517 30.2391452,1.14921314 30.25575,1.15575 C30.39825,1.19475 30.5475,1.23075 30.69675,1.27275 C43.4210219,4.97487874 50.7366451,18.2893198 47.0385,31.01475 Z" id="Path_1" fill="#745DDF" fill-rule="nonzero"></path>
                            <path d="M28.7925,30.94725 C28.7925,33.6975 26.3085,35.397 24.012,35.397 C21.255,35.397 19.67925,33.12 19.374,31.00575 L19.1145,29.1705 L12.49875,31.032 L12.79875,32.511 C13.5512037,36.9441722 16.8804293,40.4983974 21.255,41.53875 L21.255,48.1485 C20.0802008,48.01127 18.9170705,47.7879189 17.775,47.48025 C17.613,47.44125 17.457,47.39625 17.295,47.3505 C7.05441841,44.3662133 0.00977319548,34.9845544 2.66603406e-15,24.318 L2.66603406e-15,1.26 C0.000413586845,0.73701968 0.42426968,0.31275 0.94725,0.31275 L21.255,0.31275 L21.255,6.91275 C18.8785433,7.60084928 16.8536406,9.16874082 15.5925,11.29725 C14.7836825,12.712845 14.3630024,14.3169142 14.373,15.94725 L14.373,16.07775 C14.4375,21.46125 18.3945,23.712 22.13025,25.40475 L24,26.2185 L24.156,26.2935 C27.1185,27.64575 28.7925,28.5345 28.7925,30.94725 Z" id="Path_2" fill="#2EB6EA" fill-rule="nonzero"></path>
                            <g id="Group_2" transform="translate(12.498750, 0.294000)" fill="#FFFFFF" fill-rule="nonzero">
                                <g id="Group_1">
                                    <path d="M23.0063968,30.3225 C23.0156875,32.1604076 22.5699248,33.9720593 21.70875,35.59575 C21.2562632,36.448411 20.6936979,37.2379188 20.0355,37.944 C18.8508162,39.2099859 17.3927837,40.188848 15.7725,40.806 L15.7725,47.66775 L13.85475,47.83725 C13.85475,47.83725 9.741,47.96025 8.7615,47.83725 L8.751,41.247 C4.37701136,40.2049046 1.04929906,36.6495378 0.2985,32.21625 L-0.0015,30.73725 L6.61425,28.87575 L6.87375,30.711 C7.17825,32.82525 8.75475,35.10225 11.51175,35.10225 C13.8075,35.10225 16.29225,33.40275 16.29225,30.6525 C16.29225,28.23975 14.619,27.3525 11.65425,25.99575 L11.49825,25.92075 L9.63,25.11 C5.89425,23.41725 1.93725,21.1665 1.87275,15.783 L1.87275,15.65325 C1.86275242,14.0229142 2.2834325,12.418845 3.09225,11.00325 C4.35339062,8.87474082 6.37829332,7.30684928 8.75475,6.61875 L8.75475,0.012 C13.08225,-0.02475 13.41375,0.00075 15.7725,0.41625 L15.7725,6.68625 C18.324124,7.57104406 20.4428103,9.39472338 21.6975,11.78625 L22.41075,13.10925 L16.94325,16.6185 L16.0935,15.14625 C14.997,13.24575 13.95975,12.5715 12.1305,12.5715 C10.4115,12.5715 8.589,13.6965 8.589,15.78225 C8.589,17.2935 10.28175,18.1755 12.4935,19.16775 L14.56275,20.082 C18.648,21.87075 23.0063968,24.2835 23.0063968,30.3225 Z" id="Path_3"></path>
                                </g>
                            </g>
                        </g>
                    </g>
                </g>
            </g>
        </g>
    </g>
</svg>