<?xml version="1.0" encoding="UTF-8" standalone="no" ?>
<!DOCTYPE svg PUBLIC "-//W3C//DTD SVG 1.1//EN" "http://www.w3.org/Graphics/SVG/1.1/DTD/svg11.dtd">
<svg xmlns="http://www.w3.org/2000/svg" xmlns:xlink="http://www.w3.org/1999/xlink" version="1.1" width="1080" height="1080" viewBox="0 0 1080 1080" xml:space="preserve">
<desc>Created with Fabric.js 4.2.0</desc>
<defs>
</defs>
<rect x="0" y="0" width="100%" height="100%" fill="transparent"></rect>
<g transform="matrix(1 0 0 1 540 540)" id="5afe9ceb-3515-4ad3-b4f1-2345ca7a4dba"  >
<rect style="stroke: none; stroke-width: 1; stroke-dasharray: none; stroke-linecap: butt; stroke-dashoffset: 0; stroke-linejoin: miter; stroke-miterlimit: 4; fill: rgb(33,33,33); fill-rule: nonzero; opacity: 1;" vector-effect="non-scaling-stroke"  x="-540" y="-540" rx="0" ry="0" width="1080" height="1080" />
</g>
<g transform="matrix(1 0 0 1 540 540)" id="d123e9ce-b0fc-46cb-b434-50a417783c32"  >
</g>
<g transform="matrix(0.17 0 0 0.17 527.45 786.63)" id="rect25"  >
<path style="stroke: rgb(0,0,0); stroke-width: 1; stroke-dasharray: none; stroke-linecap: butt; stroke-dashoffset: 0; stroke-linejoin: miter; stroke-miterlimit: 4; fill: rgb(255,255,255); fill-rule: nonzero; opacity: 1; visibility: hidden;" vector-effect="non-scaling-stroke"  transform=" translate(-1209.1, -3006.1)" d="M 1186 2932.6 L 1232.2 2932.6 L 1232.2 3079.6 L 1186 3079.6 L 1186 2932.6 z" stroke-linecap="round" />
</g>
<g transform="matrix(1.27 0 0 1.27 540 540)" id="path7"  >
<path style="stroke: none; stroke-width: 1; stroke-dasharray: none; stroke-linecap: butt; stroke-dashoffset: 0; stroke-linejoin: miter; stroke-miterlimit: 4; fill: rgb(255,255,255); fill-rule: nonzero; opacity: 1;" vector-effect="non-scaling-stroke"  transform=" translate(-248.6, -361.2)" d="M 249 0 C 149.9 0 69.7 80.2 69.7 179.3 L 69.7 246.5 C 34.9 252.8 0 261.2 0 272.1 L 0 622.8 C 0 622.8 0 632.5 10.9 637.0999999999999 C 50.4 653.0999999999999 205.8 708.0999999999999 241.5 720.6999999999999 C 246.1 722.4 247.4 722.4 248.6 722.4 C 250.29999999999998 722.4 251.1 722.4 255.7 720.6999999999999 C 291.4 708.0999999999999 447.2 653.0999999999999 486.7 637.0999999999999 C 496.8 632.8999999999999 497.2 623.1999999999999 497.2 623.1999999999999 L 497.2 272.1 C 497.2 261.20000000000005 462.8 252.40000000000003 427.9 246.50000000000003 L 427.9 179.3 C 428.4 80.2 347.7 0 249 0 z M 249 85.7 C 307.4 85.7 342.7 121 342.7 179.4 L 342.7 237.8 C 277.2 233.20000000000002 221.29999999999998 233.20000000000002 155.39999999999998 237.8 L 155.39999999999998 179.4 C 155.39999999999998 120.9 190.7 85.7 248.99999999999997 85.7 z M 248.6 323.8 C 330.1 323.8 398.5 330.1 398.5 341.40000000000003 L 398.5 560.2 C 398.5 563.6 398.1 564 395.1 565.2 C 392.20000000000005 566.5 256.1 615.6 256.1 615.6 C 256.1 615.6 250.60000000000002 617.3000000000001 249.00000000000003 617.3000000000001 C 247.30000000000004 617.3000000000001 241.90000000000003 615.2 241.90000000000003 615.2 C 241.90000000000003 615.2 105.80000000000004 566.1 102.90000000000003 564.8000000000001 C 100.00000000000003 563.5000000000001 99.50000000000003 563.1 99.50000000000003 559.8000000000001 L 99.50000000000003 341 C 98.70000000000003 329.7 167.10000000000002 323.8 248.60000000000002 323.8 z" stroke-linecap="round" />
</g>
</svg>