<svg width="73" height="69" viewBox="0 0 73 69" fill="none" xmlns="http://www.w3.org/2000/svg">
<mask id="mask0" mask-type="alpha" maskUnits="userSpaceOnUse" x="0" y="0" width="73" height="69">
<path d="M26.2581 44.8967C18.6002 48.3187 9.61809 44.8849 6.19605 37.2269C2.77401 29.569 6.20789 20.5869 13.8658 17.1649C21.5237 13.7429 30.5058 17.1767 33.9279 24.8346C37.3499 32.4926 33.916 41.4746 26.2581 44.8967Z" fill="black"/>
<path d="M53.8442 29.2769C48.5426 31.646 42.3242 29.2687 39.9551 23.9671C37.586 18.6654 39.9633 12.4471 45.2649 10.078C50.5666 7.70886 56.785 10.0861 59.1541 15.3878C61.5232 20.6894 59.1459 26.9078 53.8442 29.2769Z" fill="black"/>
<path d="M50.1267 55.4289C45.8559 57.3374 40.8467 55.4223 38.9382 51.1516C37.0298 46.8808 38.9448 41.8716 43.2156 39.9631C47.4863 38.0547 52.4956 39.9697 54.404 44.2405C56.3125 48.5112 54.3974 53.5205 50.1267 55.4289Z" fill="black"/>
</mask>
<g mask="url(#mask0)">
<circle cx="35.5485" cy="34.525" r="40.5969" transform="rotate(65.9219 35.5485 34.525)" fill="#1568CA"/>
<circle cx="36.1725" cy="33.3634" r="17.8159" transform="rotate(65.9219 36.1725 33.3634)" fill="#8FD8E7"/>
</g>
</svg>
