<svg width="76" height="79" viewBox="12 9 60 60" fill="none" xmlns="http://www.w3.org/2000/svg">
<mask id="mask0" mask-type="alpha" maskUnits="userSpaceOnUse" x="8" y="0" width="60" height="59">
<path d="M30.7135 38.7556C24.8651 42.0829 17.4267 40.0391 14.0994 34.1907C10.7721 28.3422 12.8159 20.9038 18.6643 17.5765C24.5128 14.2492 31.9512 16.293 35.2785 22.1414C38.6058 27.9899 36.562 35.4283 30.7135 38.7556Z" fill="black"/>
<path d="M51.5255 24.1408C47.4766 26.4443 42.3269 25.0293 40.0234 20.9804C37.7199 16.9315 39.1348 11.7818 43.1838 9.47832C47.2327 7.17481 52.3823 8.58974 54.6859 12.6387C56.9894 16.6876 55.5744 21.8372 51.5255 24.1408Z" fill="black"/>
<path d="M50.5893 45.3102C47.3277 47.1659 43.1794 46.0261 41.3238 42.7644C39.4682 39.5028 40.608 35.3545 43.8696 33.4988C47.1312 31.6432 51.2795 32.783 53.1352 36.0447C54.9908 39.3063 53.851 43.4546 50.5893 45.3102Z" fill="black"/>
</mask>
<g mask="url(#mask0)">
<circle cx="37.3254" cy="29.7526" r="32.567" transform="rotate(60.3636 37.3254 29.7526)" fill="#1568CA"/>
<circle cx="37.7334" cy="28.7767" r="14.292" transform="rotate(60.3636 37.7334 28.7767)" fill="#4BCCE7"/>
</g>
</svg>
