<svg width="142" height="101" viewBox="0 0 142 101" fill="none" xmlns="http://www.w3.org/2000/svg">
<mask id="mask0_3798_8377" style="mask-type:alpha" maskUnits="userSpaceOnUse" x="37" y="9" width="59" height="50">
<path d="M60.0589 46.3804C52.0166 49.9155 42.5836 46.3682 38.9898 38.4573C35.396 30.5463 39.0023 21.2674 47.0445 17.7323C55.0868 14.1972 64.5198 17.7445 68.1136 25.6554C71.7074 33.5664 68.1011 42.8453 60.0589 46.3804Z" fill="black"/>
<path d="M89.0296 30.2444C83.4619 32.6918 76.9314 30.236 74.4434 24.7592C71.9553 19.2824 74.452 12.8586 80.0197 10.4112C85.5874 7.96377 92.118 10.4196 94.606 15.8964C97.094 21.3733 94.5973 27.7971 89.0296 30.2444Z" fill="black"/>
<path d="M85.1256 57.2608C80.6404 59.2323 75.3798 57.2539 73.3755 52.8421C71.3712 48.4302 73.3824 43.2554 77.8675 41.284C82.3526 39.3125 87.6133 41.2908 89.6176 45.7027C91.6218 50.1145 89.6107 55.2893 85.1256 57.2608Z" fill="black"/>
</mask>
<g mask="url(#mask0_3798_8377)">
<path d="M30.8905 52.7755C40.497 73.9221 65.712 83.4043 87.2097 73.9547C108.707 64.5051 118.347 39.702 108.741 18.5554C99.134 -2.5912 73.9191 -12.0735 52.4214 -2.62383C30.9237 6.82579 21.284 31.6289 30.8905 52.7755Z" fill="white"/>
<path d="M53.3885 41.9739C57.6043 51.2541 68.6699 55.4154 78.1041 51.2684C87.5383 47.1215 91.7687 36.2366 87.5529 26.9565C83.3371 17.6764 72.2715 13.5151 62.8373 17.662C53.4031 21.809 49.1727 32.6938 53.3885 41.9739Z" fill="white"/>
</g>
</svg>
