<?xml version="1.0" encoding="UTF-8" standalone="no" ?>
<!DOCTYPE svg PUBLIC "-//W3C//DTD SVG 1.1//EN" "http://www.w3.org/Graphics/SVG/1.1/DTD/svg11.dtd">
<svg xmlns="http://www.w3.org/2000/svg" xmlns:xlink="http://www.w3.org/1999/xlink" version="1.1" width="1080" height="1080" viewBox="0 0 1080 1080" xml:space="preserve">
<desc>Created with Fabric.js 4.2.0</desc>
<defs>
</defs>
<g transform="matrix(1 0 0 1 540 540)" id="8dc01599-64d2-4759-a0d8-d6511658d756"  >
<rect style="stroke: none; stroke-width: 1; stroke-dasharray: none; stroke-linecap: butt; stroke-dashoffset: 0; stroke-linejoin: miter; stroke-miterlimit: 4; fill: rgb(255,255,255); fill-rule: nonzero; opacity: 1;" vector-effect="non-scaling-stroke"  x="-540" y="-540" rx="0" ry="0" width="1080" height="1080" />
</g>
<g transform="matrix(Infinity NaN NaN Infinity 0 0)" id="94de60d1-54e1-4c8a-add1-4acf32c940d1"  >
</g>
<g transform="matrix(1.99 0 0 1.99 540 540)"  >
<g style="" vector-effect="non-scaling-stroke"   >
		<g transform="matrix(1 0 0 1 216.83 -44.65)"  >
<polygon style="stroke: none; stroke-width: 1; stroke-dasharray: none; stroke-linecap: butt; stroke-dashoffset: 0; stroke-linejoin: miter; stroke-miterlimit: 4; fill: rgb(65,182,230); fill-rule: nonzero; opacity: 1;" vector-effect="non-scaling-stroke"  points="45.95,-12.77 13.54,-12.77 13.54,-44.64 12.99,-44.64 -11.06,-44.64 -13.54,-44.64 -13.54,-12.77 -45.95,-12.77 -45.95,12.77 -13.54,12.77 -13.54,44.65 13.54,44.65 13.54,12.77 45.95,12.77 45.95,-12.77 " />
</g>
		<g transform="matrix(1 0 0 1 -197.47 16.17)"  >
<path style="stroke: none; stroke-width: 1; stroke-dasharray: none; stroke-linecap: butt; stroke-dashoffset: 0; stroke-linejoin: miter; stroke-miterlimit: 4; fill: rgb(0,0,0); fill-rule: nonzero; opacity: 1;" vector-effect="non-scaling-stroke"  transform=" translate(-130.64, -145.63)" d="M 169.59 188.13 C 162.89000000000001 191.37 153.97 193.6 143.22 193.6 C 116.22 193.6 94.35 174.13 94.35 145.74 C 94.35 117.35000000000002 115.22999999999999 98.69000000000001 143.42 98.69000000000001 C 163.1 98.69000000000001 175.06 105.99000000000001 178.70999999999998 108.42000000000002 L 191.07999999999998 86.11000000000001 C 185.80999999999997 82.67000000000002 170.79999999999998 72.53000000000002 142.20999999999998 72.53000000000002 C 97.20999999999998 72.53000000000002 65.33999999999997 104.53000000000002 65.33999999999997 145.74 C 65.33999999999997 186.95 97.17999999999998 218.74 141.59999999999997 218.74 C 171.40999999999997 218.74 188.24999999999997 207.99 195.94999999999996 202.11 L 195.94999999999996 145.94 L 169.59 145.94 Z" stroke-linecap="round" />
</g>
		<g transform="matrix(1 0 0 1 -45.26 15.91)"  >
<path style="stroke: none; stroke-width: 1; stroke-dasharray: none; stroke-linecap: butt; stroke-dashoffset: 0; stroke-linejoin: miter; stroke-miterlimit: 4; fill: rgb(0,0,0); fill-rule: nonzero; opacity: 1;" vector-effect="non-scaling-stroke"  transform=" translate(-282.86, -145.38)" d="M 336.4 125 C 336.4 92.24000000000001 312.59999999999997 72 276.91999999999996 72 L 224.53 72 L 224.53 218.75 L 253.33 218.75 L 253.33 176.8 L 278.59000000000003 176.8 L 307.18 218.75 L 341.18 218.75 L 307.58 170.32999999999998 C 325.75 161.77 336.4 145.91 336.4 125 Z M 274.4 151.51 L 253.33 151.51 L 253.33 97.29 L 274.62 97.29 C 293.62 97.29 306.55 107.51 306.55 125.04 C 306.55 141.11 293.82 151.55 274.41 151.55 Z" stroke-linecap="round" />
</g>
		<g transform="matrix(1 0 0 1 52.64 15.93)"  >
<rect style="stroke: none; stroke-width: 1; stroke-dasharray: none; stroke-linecap: butt; stroke-dashoffset: 0; stroke-linejoin: miter; stroke-miterlimit: 4; fill: rgb(0,0,0); fill-rule: nonzero; opacity: 1;" vector-effect="non-scaling-stroke"  x="-14.4" y="-73.36" rx="0" ry="0" width="28.8" height="146.72" />
</g>
		<g transform="matrix(1 0 0 1 165.27 15.91)"  >
<path style="stroke: none; stroke-width: 1; stroke-dasharray: none; stroke-linecap: butt; stroke-dashoffset: 0; stroke-linejoin: miter; stroke-miterlimit: 4; fill: rgb(0,0,0); fill-rule: nonzero; opacity: 1;" vector-effect="non-scaling-stroke"  transform=" translate(-493.38, -145.38)" d="M 558.33 146.62 L 558.33 146.62 L 558.33 142.21 L 531.47 142.21 L 531.47 146.62 C 531.47 146.62 531.1800000000001 157.3 530.71 160.82 C 527.96 181.34 508.48 193.29 483.6 193.29 L 457.09 193.29 L 457.09 97.49 L 483.73999999999995 97.49 L 483.73999999999995 72 L 428.29 72 L 428.29 218.75 L 484.85 218.75 C 525.49 218.75 555.12 196.54 558.33 160.82 C 558.65 157.29 558.33 146.62 558.33 146.62 Z" stroke-linecap="round" />
</g>
</g>
</g>
</svg>