<svg width="76" height="79" viewBox="0 0 76 79" fill="none" xmlns="http://www.w3.org/2000/svg">
<mask id="mask0" mask-type="alpha" maskUnits="userSpaceOnUse" x="8" y="0" width="60" height="59">
<path d="M30.7135 38.7556C24.8651 42.0829 17.4267 40.0391 14.0994 34.1907C10.7721 28.3422 12.8159 20.9038 18.6643 17.5765C24.5128 14.2492 31.9512 16.293 35.2785 22.1414C38.6058 27.9899 36.562 35.4283 30.7135 38.7556Z" fill="black"/>
<path d="M51.5255 24.1408C47.4766 26.4443 42.3269 25.0293 40.0234 20.9804C37.7199 16.9315 39.1348 11.7818 43.1838 9.47832C47.2327 7.17481 52.3823 8.58974 54.6859 12.6387C56.9894 16.6876 55.5744 21.8372 51.5255 24.1408Z" fill="black"/>
<path d="M50.5893 45.3102C47.3277 47.1659 43.1794 46.0261 41.3238 42.7644C39.4682 39.5028 40.608 35.3545 43.8696 33.4988C47.1312 31.6432 51.2795 32.783 53.1352 36.0447C54.9908 39.3063 53.851 43.4546 50.5893 45.3102Z" fill="black"/>
</mask>
<g mask="url(#mask0)">
<circle cx="37.3254" cy="29.7526" r="32.567" transform="rotate(60.3636 37.3254 29.7526)" fill="white"/>
<circle cx="37.7334" cy="28.7767" r="14.292" transform="rotate(60.3636 37.7334 28.7767)" fill="#4BCCE7"/>
</g>
<path d="M0.398663 77.8465C0.287923 77.8465 0.193795 77.8078 0.116277 77.7302C0.0387589 77.6527 0 77.5586 0 77.4478V66.6341C0 66.5123 0.0332219 66.4126 0.0996658 66.3351C0.177184 66.2576 0.276849 66.2188 0.398663 66.2188H7.70748C7.8293 66.2188 7.92896 66.2576 8.00648 66.3351C8.084 66.4126 8.12276 66.5123 8.12276 66.6341V67.7304C8.12276 67.8523 8.084 67.9519 8.00648 68.0294C7.92896 68.0959 7.8293 68.1291 7.70748 68.1291H2.24248V71.0692H7.34204C7.46386 71.0692 7.56352 71.108 7.64104 71.1855C7.71856 71.252 7.75732 71.3461 7.75732 71.4679V72.4978C7.75732 72.6196 7.71856 72.7193 7.64104 72.7968C7.56352 72.8632 7.46386 72.8964 7.34204 72.8964H2.24248V75.9363H7.84037C7.96218 75.9363 8.06185 75.975 8.13937 76.0525C8.21689 76.13 8.25564 76.2297 8.25564 76.3515V77.4478C8.25564 77.5697 8.21689 77.6693 8.13937 77.7468C8.06185 77.8133 7.96218 77.8465 7.84037 77.8465H0.398663Z" fill="white"/>
<path d="M10.5491 77.8465C10.4384 77.8465 10.3443 77.8078 10.2667 77.7302C10.1892 77.6527 10.1505 77.5586 10.1505 77.4478V66.4514C10.1505 66.3296 10.1892 66.2355 10.2667 66.169C10.3443 66.0915 10.4384 66.0527 10.5491 66.0527H11.9278C12.0496 66.0527 12.1438 66.0915 12.2102 66.169C12.2877 66.2355 12.3265 66.3296 12.3265 66.4514V77.4478C12.3265 77.5586 12.2877 77.6527 12.2102 77.7302C12.1438 77.8078 12.0496 77.8465 11.9278 77.8465H10.5491Z" fill="white"/>
<path d="M18.2508 78.0126C17.0216 78.0126 16.0415 77.6583 15.3106 76.9495C14.5908 76.2297 14.2088 75.222 14.1645 73.9263L14.1479 73.5111L14.1645 73.0958C14.2198 71.8333 14.6074 70.8422 15.3272 70.1224C16.0581 69.4026 17.0326 69.0427 18.2508 69.0427C19.5575 69.0427 20.5652 69.4414 21.274 70.2387C21.9938 71.036 22.3537 72.0991 22.3537 73.428V73.7768C22.3537 73.8876 22.3149 73.9817 22.2374 74.0592C22.1599 74.1367 22.0602 74.1755 21.9384 74.1755H16.4236V74.3084C16.4457 74.9174 16.6118 75.4324 16.9219 75.8532C17.243 76.2629 17.6805 76.4678 18.2342 76.4678C18.8875 76.4678 19.4135 76.2131 19.8122 75.7037C19.9119 75.5819 19.9894 75.5044 20.0447 75.4711C20.1112 75.4379 20.2053 75.4213 20.3271 75.4213H21.7557C21.8553 75.4213 21.9384 75.4545 22.0048 75.521C22.0824 75.5763 22.1211 75.6483 22.1211 75.7369C22.1211 76.0027 21.9605 76.3183 21.6394 76.6837C21.3293 77.0381 20.8808 77.3482 20.2939 77.614C19.707 77.8797 19.0259 78.0126 18.2508 78.0126ZM20.0946 72.7802V72.7303C20.0946 72.077 19.9285 71.551 19.5963 71.1523C19.2751 70.7536 18.8266 70.5543 18.2508 70.5543C17.6749 70.5543 17.2264 70.7536 16.9053 71.1523C16.5841 71.551 16.4236 72.077 16.4236 72.7303V72.7802H20.0946Z" fill="white"/>
<path d="M24.5156 77.8465C24.4048 77.8465 24.3107 77.8078 24.2332 77.7302C24.1557 77.6527 24.1169 77.5586 24.1169 77.4478V69.6075C24.1169 69.4967 24.1557 69.4026 24.2332 69.3251C24.3107 69.2476 24.4048 69.2088 24.5156 69.2088H25.8112C25.922 69.2088 26.0161 69.2476 26.0936 69.3251C26.1711 69.4026 26.2099 69.4967 26.2099 69.6075V70.1723C26.7857 69.4192 27.5886 69.0427 28.6185 69.0427C29.8477 69.0427 30.7059 69.5355 31.1932 70.5211C31.4589 70.0781 31.8355 69.7238 32.3227 69.458C32.81 69.1811 33.336 69.0427 33.9008 69.0427C34.8088 69.0427 35.5508 69.3528 36.1266 69.9729C36.7025 70.5931 36.9904 71.4956 36.9904 72.6805V77.4478C36.9904 77.5586 36.9516 77.6527 36.8741 77.7302C36.8077 77.8078 36.7135 77.8465 36.5917 77.8465H35.2296C35.1189 77.8465 35.0248 77.8078 34.9472 77.7302C34.8697 77.6527 34.831 77.5586 34.831 77.4478V72.8134C34.831 72.1157 34.6815 71.6119 34.3825 71.3018C34.0945 70.9807 33.707 70.8201 33.2197 70.8201C32.7878 70.8201 32.4168 70.9807 32.1068 71.3018C31.8078 71.6229 31.6583 72.1268 31.6583 72.8134V77.4478C31.6583 77.5586 31.6195 77.6527 31.542 77.7302C31.4645 77.8078 31.3703 77.8465 31.2596 77.8465H29.8975C29.7868 77.8465 29.6926 77.8078 29.6151 77.7302C29.5376 77.6527 29.4988 77.5586 29.4988 77.4478V72.8134C29.4988 72.1157 29.3438 71.6119 29.0337 71.3018C28.7347 70.9807 28.3527 70.8201 27.8876 70.8201C27.4446 70.8201 27.0681 70.9807 26.758 71.3018C26.459 71.6229 26.3095 72.1268 26.3095 72.8134V77.4478C26.3095 77.5586 26.2708 77.6527 26.1933 77.7302C26.1157 77.8078 26.0216 77.8465 25.9109 77.8465H24.5156Z" fill="white"/>
<path d="M42.8265 78.0126C41.5973 78.0126 40.6173 77.6583 39.8864 76.9495C39.1666 76.2297 38.7845 75.222 38.7402 73.9263L38.7236 73.5111L38.7402 73.0958C38.7956 71.8333 39.1832 70.8422 39.903 70.1224C40.6339 69.4026 41.6084 69.0427 42.8265 69.0427C44.1333 69.0427 45.141 69.4414 45.8497 70.2387C46.5695 71.036 46.9294 72.0991 46.9294 73.428V73.7768C46.9294 73.8876 46.8907 73.9817 46.8132 74.0592C46.7357 74.1367 46.636 74.1755 46.5142 74.1755H40.9993V74.3084C41.0215 74.9174 41.1876 75.4324 41.4977 75.8532C41.8188 76.2629 42.2562 76.4678 42.8099 76.4678C43.4633 76.4678 43.9893 76.2131 44.388 75.7037C44.4876 75.5819 44.5652 75.5044 44.6205 75.4711C44.687 75.4379 44.7811 75.4213 44.9029 75.4213H46.3315C46.4311 75.4213 46.5142 75.4545 46.5806 75.521C46.6581 75.5763 46.6969 75.6483 46.6969 75.7369C46.6969 76.0027 46.5363 76.3183 46.2152 76.6837C45.9051 77.0381 45.4566 77.3482 44.8697 77.614C44.2828 77.8797 43.6017 78.0126 42.8265 78.0126ZM44.6704 72.7802V72.7303C44.6704 72.077 44.5042 71.551 44.172 71.1523C43.8509 70.7536 43.4024 70.5543 42.8265 70.5543C42.2507 70.5543 41.8022 70.7536 41.4811 71.1523C41.1599 71.551 40.9993 72.077 40.9993 72.7303V72.7802H44.6704Z" fill="white"/>
<path d="M49.0913 77.8465C48.9806 77.8465 48.8865 77.8078 48.809 77.7302C48.7314 77.6527 48.6927 77.5586 48.6927 77.4478V69.6075C48.6927 69.4967 48.7314 69.4026 48.809 69.3251C48.8865 69.2476 48.9806 69.2088 49.0913 69.2088H50.4534C50.5642 69.2088 50.6583 69.2476 50.7358 69.3251C50.8133 69.4026 50.8521 69.4967 50.8521 69.6075V70.2885C51.5055 69.458 52.4301 69.0427 53.6261 69.0427C54.6449 69.0427 55.4533 69.3805 56.0513 70.056C56.6493 70.7204 56.9483 71.6285 56.9483 72.7802V77.4478C56.9483 77.5586 56.9096 77.6527 56.832 77.7302C56.7656 77.8078 56.6715 77.8465 56.5497 77.8465H55.0879C54.9772 77.8465 54.883 77.8078 54.8055 77.7302C54.728 77.6527 54.6892 77.5586 54.6892 77.4478V72.8798C54.6892 72.2265 54.5287 71.7226 54.2075 71.3682C53.8974 71.0028 53.4434 70.8201 52.8454 70.8201C52.2585 70.8201 51.7934 71.0028 51.4501 71.3682C51.1179 71.7337 50.9518 72.2375 50.9518 72.8798V77.4478C50.9518 77.5586 50.913 77.6527 50.8355 77.7302C50.769 77.8078 50.6749 77.8465 50.5531 77.8465H49.0913Z" fill="white"/>
<path d="M62.8645 77.8465C61.8568 77.8465 61.0982 77.5863 60.5888 77.0658C60.0905 76.5342 59.8413 75.7591 59.8413 74.7403V70.9696H58.5291C58.4183 70.9696 58.3242 70.9308 58.2467 70.8533C58.1692 70.7647 58.1304 70.665 58.1304 70.5543V69.6075C58.1304 69.4967 58.1692 69.4026 58.2467 69.3251C58.3242 69.2476 58.4183 69.2088 58.5291 69.2088H59.8413V66.4514C59.8413 66.3296 59.8801 66.2355 59.9576 66.169C60.0351 66.0915 60.1293 66.0527 60.24 66.0527H61.5855C61.7073 66.0527 61.8014 66.0915 61.8679 66.169C61.9454 66.2355 61.9842 66.3296 61.9842 66.4514V69.2088H64.0605C64.1823 69.2088 64.2765 69.2476 64.3429 69.3251C64.4204 69.3915 64.4592 69.4857 64.4592 69.6075V70.5543C64.4592 70.6761 64.4204 70.7758 64.3429 70.8533C64.2654 70.9308 64.1713 70.9696 64.0605 70.9696H61.9842V74.5742C61.9842 75.0503 62.0672 75.4102 62.2333 75.6539C62.3994 75.8975 62.6763 76.0193 63.0639 76.0193H64.21C64.3208 76.0193 64.4149 76.0581 64.4924 76.1356C64.5699 76.2131 64.6087 76.3072 64.6087 76.418V77.4478C64.6087 77.5586 64.5699 77.6527 64.4924 77.7302C64.426 77.8078 64.3318 77.8465 64.21 77.8465H62.8645Z" fill="white"/>
<path d="M68.5528 77.8547C68.4412 77.8547 68.3464 77.8157 68.2682 77.7375C68.1901 77.6594 68.1511 77.5646 68.1511 77.453V70.9251H66.7953C66.6837 70.9251 66.5888 70.886 66.5107 70.8079C66.4326 70.7186 66.3936 70.6182 66.3936 70.5066V69.5525C66.3936 69.4409 66.4326 69.3461 66.5107 69.268C66.5888 69.1899 66.6837 69.1508 66.7953 69.1508H68.1511V68.4645C68.1511 66.4671 69.2446 65.4684 71.4318 65.4684H74.8464C74.9691 65.4684 75.064 65.5074 75.1309 65.5856C75.209 65.6525 75.2481 65.7474 75.2481 65.8701V66.8242C75.2481 66.9469 75.209 67.0474 75.1309 67.1255C75.0528 67.2036 74.958 67.2426 74.8464 67.2426H71.4987C71.0635 67.2426 70.7567 67.3487 70.5781 67.5607C70.4107 67.7727 70.3271 68.1019 70.3271 68.5482V69.1508H74.8464C74.9691 69.1508 75.064 69.1899 75.1309 69.268C75.209 69.3349 75.2481 69.4298 75.2481 69.5525V77.453C75.2481 77.5646 75.209 77.6594 75.1309 77.7375C75.064 77.8157 74.9691 77.8547 74.8464 77.8547H73.4906C73.379 77.8547 73.2841 77.8157 73.206 77.7375C73.1279 77.6594 73.0889 77.5646 73.0889 77.453V70.9251H70.3271V77.453C70.3271 77.5646 70.288 77.6594 70.2099 77.7375C70.1318 77.8157 70.0369 77.8547 69.9253 77.8547H68.5528Z" fill="#4BCCE7"/>
</svg>
