<svg id="svg" version="1.1" xmlns="http://www.w3.org/2000/svg" xmlns:xlink="http://www.w3.org/1999/xlink" width="400" height="400" viewBox="0, 0, 400,400"><g id="svgg"><path id="path0" d="M57.774 0.229 C 27.716 3.713,4.942 25.345,0.536 54.594 C 0.114 57.398,0.004 61.972,0.002 76.767 L 0.000 95.406 47.703 95.406 L 95.406 95.406 95.406 47.703 L 95.406 0.000 77.120 0.053 C 67.063 0.082,58.357 0.161,57.774 0.229 M152.297 123.852 L 152.297 247.703 276.148 247.703 L 400.000 247.703 400.000 153.789 C 400.000 91.878,399.877 58.855,399.638 56.881 C 396.005 26.826,373.174 3.995,343.119 0.362 C 341.145 0.123,308.122 0.000,246.211 0.000 L 152.297 0.000 152.297 123.852 M0.000 200.000 L 0.000 247.703 47.703 247.703 L 95.406 247.703 95.406 200.000 L 95.406 152.297 47.703 152.297 L 0.000 152.297 0.000 200.000 M0.098 324.823 C 0.249 347.456,0.248 347.450,3.049 356.153 C 9.080 374.894,25.106 390.920,43.847 396.951 C 52.550 399.752,52.544 399.751,75.177 399.902 L 95.406 400.037 95.406 352.315 L 95.406 304.594 47.685 304.594 L -0.037 304.594 0.098 324.823 M152.297 352.297 L 152.297 400.000 200.000 400.000 L 247.703 400.000 247.703 352.297 L 247.703 304.594 200.000 304.594 L 152.297 304.594 152.297 352.297 M304.594 352.297 L 304.594 400.000 323.233 399.998 C 343.624 399.996,345.435 399.867,352.862 397.885 C 374.564 392.095,392.370 374.205,397.882 352.650 C 399.731 345.422,399.725 345.500,399.893 324.470 L 400.052 304.594 352.323 304.594 L 304.594 304.594 304.594 352.297 " stroke="none" fill="#142434" fill-rule="evenodd"></path><path id="path1" d="" stroke="none" fill="#182434" fill-rule="evenodd"></path><path id="path2" d="" stroke="none" fill="#182434" fill-rule="evenodd"></path><path id="path3" d="" stroke="none" fill="#182434" fill-rule="evenodd"></path><path id="path4" d="" stroke="none" fill="#182434" fill-rule="evenodd"></path></g></svg>